
<svg width="134px" height="80px" viewBox="0 0 134 80" version="1.1" xmlns="http://www.w3.org/2000/svg" xmlns:xlink="http://www.w3.org/1999/xlink">
    <defs>
        <polygon id="path-1" points="0.34881875 0.192982456 20.0727005 0.192982456 20.0727005 23.9030175 0.34881875 23.9030175"></polygon>
        <polygon id="path-3" points="0 0.192982456 19.7231621 0.192982456 19.7231621 23.9030175 0 23.9030175"></polygon>
        <polygon id="path-5" points="0 79.8070175 133.311854 79.8070175 133.311854 0.701754386 0 0.701754386"></polygon>
    </defs>
    <g id="Desktop" stroke="none" stroke-width="1" fill="none" fill-rule="evenodd">
        <g id="Desktop-HD-Copy-52" transform="translate(-112.000000, -3810.000000)">
            <g id="Group-27" transform="translate(112.000000, 3810.000000)">
                <path d="M82.705149,32.2922105 C74.9589719,38.0395789 63.7301906,41.0964211 54.0598573,41.0964211 C40.5077115,41.0964211 28.3039406,36.0592281 19.0684094,27.6746667 C18.343274,27.0157193 18.9902427,26.1167719 19.8619406,26.6269474 C29.825399,32.4564211 42.1478156,35.9672982 54.8736281,35.9672982 C63.458701,35.9672982 72.8952323,34.1764211 81.5794094,30.4725614 C82.888701,29.9139649 83.986524,31.3406316 82.705149,32.2922105" id="Fill-1" fill="#FEFEFE"></path>
                <path d="M85.9282677,28.5922105 C84.937226,27.3171228 79.3797156,27.988 76.8825698,28.2883509 C76.1260281,28.3795789 76.0087781,27.7150175 76.6906427,27.233614 C81.1245073,24.1030877 88.3891219,25.0069474 89.233601,26.0553684 C90.0843615,27.1129123 89.0102677,34.4364211 84.8555698,37.9318596 C84.2162781,38.4687018 83.6083927,38.182386 83.8917469,37.4722105 C84.8269552,35.1248421 86.9200073,29.868 85.9282677,28.5922105" id="Fill-3" fill="#FEFEFE"></path>
                <path d="M77.0584448,5.11361404 L77.0584448,2.07080702 C77.0612365,1.60764912 77.4074031,1.29887719 77.8261531,1.3002807 L91.3880698,1.29887719 C91.821476,1.29887719 92.1697365,1.61677193 92.1697365,2.06659649 L92.1697365,4.67642105 C92.165549,5.11431579 91.7991427,5.68484211 91.1486844,6.59150877 L84.1234552,16.6778246 C86.7308719,16.6160702 89.4897365,17.0090526 91.8591635,18.348 C92.3937677,18.6497544 92.5368406,19.0967719 92.5787156,19.5353684 L92.5787156,22.782386 C92.5787156,23.2287018 92.0915698,23.7472982 91.5799969,23.4771228 C87.4057573,21.2785263 81.8663927,21.0385263 77.249674,23.5044912 C76.7785802,23.7564211 76.2851531,23.2469474 76.2851531,22.7985263 L76.2851531,19.7129123 C76.2851531,19.2188772 76.294226,18.3739649 76.7897469,17.6216842 L84.928851,5.88063158 L77.8422052,5.87992982 C77.408799,5.87992982 77.0612365,5.56905263 77.0584448,5.11361404" id="Fill-5" fill="#FEFEFE"></path>
                <path d="M27.5867615,24.117193 L23.4606781,24.117193 C23.067751,24.0912281 22.7543865,23.7950877 22.7222823,23.4154386 L22.7257719,2.12280702 C22.7257719,1.69684211 23.0817094,1.35649123 23.5220948,1.35649123 L27.364824,1.35508772 C27.766824,1.37614035 28.0892615,1.68140351 28.1143865,2.07087719 L28.1143865,4.85052632 L28.1918552,4.85052632 C29.1933656,2.16210526 31.0805323,0.907368421 33.6216469,0.907368421 C36.2025427,0.907368421 37.8203135,2.16210526 38.9753656,4.85052632 C39.977574,2.16210526 42.2499906,0.907368421 44.675949,0.907368421 C46.409574,0.907368421 48.2967406,1.62385965 49.4517927,3.23719298 C50.7610844,5.03017544 50.4923865,7.62807018 50.4923865,9.91368421 L50.488199,23.3508772 C50.488199,23.7761404 50.1329594,24.117193 49.692574,24.117193 L45.572074,24.117193 C45.1575115,24.0905263 44.8315844,23.7607018 44.8315844,23.3522807 L44.8301885,12.0638596 C44.8301885,11.1691228 44.9069594,8.9277193 44.7143344,8.07719298 C44.4065531,6.64280702 43.4818135,6.23859649 42.288376,6.23859649 C41.2868656,6.23859649 40.2469698,6.91087719 39.8226365,7.98666667 C39.399699,9.06245614 39.4373865,10.8540351 39.4373865,12.0638596 L39.4373865,23.3508772 C39.4373865,23.7761404 39.0821469,24.117193 38.6424594,24.117193 L34.5212615,24.117193 C34.106699,24.0905263 33.780074,23.7607018 33.780074,23.3522807 L33.7758865,12.0638596 C33.7758865,9.68912281 34.1611365,6.19508772 31.2347719,6.19508772 C28.268626,6.19508772 28.3844802,9.6 28.3844802,12.0638596 L28.3830844,23.3508772 C28.3830844,23.7761404 28.026449,24.117193 27.5867615,24.117193" id="Fill-7" fill="#FEFEFE"></path>
                <path d="M103.883221,5.25410526 C100.841002,5.25410526 100.648377,9.42042105 100.648377,12.0197193 C100.648377,14.6183158 100.61069,20.1741053 103.845533,20.1741053 C107.04269,20.1741053 107.196231,15.6934035 107.196231,12.9607719 C107.196231,11.169193 107.11946,9.01761404 106.579273,7.31515789 C106.117252,5.83585965 105.192513,5.25410526 103.883221,5.25410526 M103.845533,0.907438596 C109.969752,0.907438596 113.281367,6.19515789 113.281367,12.9158596 C113.281367,19.412 109.623585,24.566386 103.845533,24.566386 C97.8371687,24.566386 94.5632417,19.2772632 94.5632417,12.692 C94.5632417,6.0597193 97.8755542,0.907438596 103.845533,0.907438596" id="Fill-9" fill="#FEFEFE"></path>
                <path d="M121.223449,24.117193 L117.112022,24.117193 C116.699553,24.0905263 116.37223,23.7607018 116.37223,23.3522807 L116.365251,2.05192982 C116.400147,1.66175439 116.742126,1.35649123 117.158084,1.35649123 L120.984761,1.35508772 C121.345584,1.37473684 121.642897,1.62105263 121.718272,1.95157895 L121.718272,5.20912281 L121.795741,5.20912281 C122.952189,2.2954386 124.568564,0.907368421 127.418855,0.907368421 C129.266939,0.907368421 131.078032,1.57894737 132.233084,3.41684211 C133.311366,5.11929825 133.311366,7.98666667 133.311366,10.0477193 L133.311366,23.4470175 C133.266001,23.8238596 132.928209,24.117193 132.520626,24.117193 L128.38547,24.117193 C128.003011,24.0926316 127.694532,23.8105263 127.650564,23.4470175 L127.650564,11.885614 C127.650564,9.55578947 127.920657,6.14947368 125.070366,6.14947368 C124.068157,6.14947368 123.144116,6.82175439 122.682095,7.85192982 C122.10422,9.1522807 122.026053,10.4505263 122.026053,11.885614 L122.026053,23.3508772 C122.019772,23.7761404 121.663136,24.117193 121.223449,24.117193" id="Fill-11" fill="#FEFEFE"></path>
                <g id="Group-15" transform="translate(53.739583, 0.508772)">
                    <mask id="mask-2" fill="white">
                        <use xlink:href="#path-1"></use>
                    </mask>
                    <g id="Clip-14"></g>
                    <path d="M16.6668083,23.5549474 C16.3939229,23.8019649 16.0002979,23.8181053 15.6925167,23.6517895 C14.3225063,22.5065263 14.0768396,21.9774035 13.3272771,20.8868772 C11.0625375,23.2068772 9.458725,23.9030175 6.52468333,23.9030175 C3.05115208,23.9030175 0.34881875,21.7472281 0.34881875,17.4363509 C0.34881875,14.0686316 2.16340208,11.778807 4.74918333,10.656 C6.98740208,9.66792982 10.1140688,9.4882807 12.5079229,9.21810526 L12.5079229,8.67985965 C12.5079229,7.69178947 12.5846937,6.52477193 12.0054229,5.6714386 C11.5036208,4.90792982 10.5391,4.59284211 9.68973542,4.59284211 C8.11593333,4.59284211 6.71730833,5.40407018 6.37323542,7.08407018 C6.30135,7.45880702 6.03055833,7.82863158 5.65717292,7.84757895 L1.6574125,7.41178947 C1.31962083,7.33529825 0.944839583,7.06301754 1.04115208,6.54442105 C1.96170417,1.66652632 6.34252708,0.192842105 10.2683083,0.192842105 C12.2762146,0.192842105 14.9003812,0.731087719 16.4825583,2.25810526 C18.4904646,4.14442105 18.2971417,6.65950877 18.2971417,9.39915789 L18.2971417,15.861614 C18.2971417,17.8068772 19.1004438,18.658807 19.8541937,19.7065263 C20.1180063,20.0847719 20.1766312,20.5324912 19.8409333,20.8089825 C18.9985479,21.5198596 17.5008187,22.8272281 16.6772771,23.5647719 L16.6668083,23.5549474 Z M12.5079229,13.4398596 C12.5079229,15.0574035 12.5463083,16.4033684 11.7353292,17.8405614 C11.0792875,19.0082807 10.0366,19.7268772 8.87945417,19.7268772 C7.29657917,19.7268772 6.37044375,18.5135439 6.37044375,16.7177544 C6.37044375,13.1844211 9.52293333,12.5423158 12.5079229,12.5423158 L12.5079229,13.4398596 Z" id="Fill-13" fill="#FEFEFE" mask="url(#mask-2)"></path>
                </g>
                <g id="Group-18" transform="translate(0.000000, 0.508772)">
                    <mask id="mask-4" fill="white">
                        <use xlink:href="#path-3"></use>
                    </mask>
                    <g id="Clip-17"></g>
                    <path d="M16.31785,23.5549474 C16.0449646,23.8019649 15.6506417,23.8181053 15.3435583,23.6517895 C13.9721521,22.5065263 13.7264854,21.9774035 12.9783187,20.8868772 C10.7128812,23.2068772 9.10906875,23.9030175 6.175725,23.9030175 C2.70149583,23.9030175 -0.000139583333,21.7472281 -0.000139583333,17.4363509 C-0.000139583333,14.0686316 1.81374583,11.778807 4.400225,10.656 C6.63844375,9.66792982 9.76511042,9.4882807 12.1575687,9.21810526 L12.1575687,8.67985965 C12.1575687,7.69178947 12.2350375,6.52477193 11.6564646,5.6714386 C11.1546625,4.90792982 10.1894437,4.59284211 9.34077708,4.59284211 C7.766975,4.59284211 6.36695417,5.40407018 6.02427708,7.08407018 C5.95239167,7.45880702 5.6816,7.82863158 5.30751667,7.84757895 L1.30845417,7.41178947 C0.9706625,7.33529825 0.595183333,7.06301754 0.69219375,6.54442105 C1.61135,1.66652632 5.99217292,0.192842105 9.91935,0.192842105 C11.9265583,0.192842105 14.5514229,0.731087719 16.1336,2.25810526 C18.1401104,4.14442105 17.9481833,6.65950877 17.9481833,9.39915789 L17.9481833,15.861614 C17.9481833,17.8068772 18.7507875,18.658807 19.5045375,19.7065263 C19.7676521,20.0847719 19.8276729,20.5324912 19.491975,20.8089825 C18.6488917,21.5198596 17.1504646,22.8272281 16.3276208,23.5647719 L16.31785,23.5549474 Z M12.1575687,13.4398596 C12.1575687,15.0574035 12.1966521,16.4033684 11.3863708,17.8405614 C10.7303292,19.0082807 9.68764167,19.7268772 8.52979792,19.7268772 C6.94762083,19.7268772 6.0207875,18.5135439 6.0207875,16.7177544 C6.0207875,13.1844211 9.173975,12.5423158 12.1575687,12.5423158 L12.1575687,13.4398596 Z" id="Fill-16" fill="#FEFEFE" mask="url(#mask-4)"></path>
                </g>
                <polygon id="Fill-19" fill="#FEFEFE" points="25.877075 79.3310175 16.2639708 67.6117193 16.2165125 67.6117193 16.2165125 79.3310175 12.7590333 79.3310175 12.7590333 45.6025965 16.2165125 45.6025965 16.2165125 64.7534737 16.2639708 64.7534737 24.503575 56.7976842 29.0030437 56.7976842 19.15195 65.9913684 30.2816271 79.3310175"></polygon>
                <mask id="mask-6" fill="white">
                    <use xlink:href="#path-5"></use>
                </mask>
                <g id="Clip-22"></g>
                <path d="M32.6003854,79.3305263 L36.0571667,79.3305263 L36.0571667,56.797193 L32.6003854,56.797193 L32.6003854,79.3305263 Z M34.3053958,52.0814035 C32.9793542,52.0814035 31.8906042,50.9852632 31.8906042,49.6519298 C31.8906042,48.317193 32.9793542,47.2224561 34.3053958,47.2224561 C35.6314375,47.2224561 36.7208854,48.317193 36.7208854,49.6519298 C36.7208854,50.9852632 35.6314375,52.0814035 34.3053958,52.0814035 Z" id="Fill-21" fill="#FEFEFE" mask="url(#mask-6)"></path>
                <path d="M55.48605,79.3310175 L55.48605,65.4678596 C55.48605,62.6566316 55.0121646,59.5127719 51.6028417,59.5127719 C48.8558417,59.5127719 46.3461333,61.4657544 44.6418208,62.9429474 L44.6418208,79.3310175 L41.1843417,79.3310175 L41.1843417,56.7976842 L44.0255604,56.7976842 L44.4994458,59.5127719 C46.9616958,57.6075088 49.3771854,56.2257544 52.5031542,56.2257544 C55.7226438,56.2257544 58.9428313,58.5597895 58.9428313,64.1815439 L58.9428313,79.3310175 L55.48605,79.3310175 Z" id="Fill-23" fill="#FEFEFE" mask="url(#mask-6)"></path>
                <path d="M77.8848479,59.8463158 C76.9852333,59.5122807 76.1805354,59.2750877 74.4280667,59.2750877 C70.0235146,59.2750877 66.1877646,62.7529825 66.1877646,68.1361404 C66.1877646,73.2329825 68.981525,76.8533333 74.8070354,76.8533333 C75.9432438,76.8533333 77.1743688,76.6154386 77.8848479,76.2821053 L77.8848479,59.8463158 Z M74.1914729,79.8070175 C67.9402333,79.8070175 62.683525,76.1396491 62.683525,68.3733333 C62.683525,61.3712281 67.7029417,56.2259649 74.2382333,56.2259649 C75.8483271,56.2259649 76.9852333,56.3684211 77.8848479,56.6070175 L77.8848479,45.6021053 L81.3416292,45.6021053 L81.3416292,78.1873684 C79.9681292,78.997193 77.3642021,79.8070175 74.1914729,79.8070175 Z" id="Fill-24" fill="#FEFEFE" mask="url(#mask-6)"></path>
                <path d="M90.3389615,79.8072982 C87.5919615,79.8072982 86.4082948,78.0444912 86.4082948,75.6627368 L86.4082948,45.602386 L89.865774,45.602386 L89.865774,74.090807 C89.865774,76.2339649 90.3864198,76.6634386 91.7124615,76.6634386 C91.9497531,76.6634386 92.3287219,76.6634386 92.8961281,76.5202807 L93.3225552,79.045193 C92.2805656,79.5687018 91.4758677,79.8072982 90.3389615,79.8072982" id="Fill-25" fill="#FEFEFE" mask="url(#mask-6)"></path>
                <path d="M104.35592,59.1795088 C101.041514,59.1795088 98.9575344,62.133193 98.9575344,65.7065263 L109.517711,65.7065263 C109.517711,62.5619649 107.765941,59.1795088 104.35592,59.1795088 Z M98.910076,68.6602105 C98.910076,72.9472281 101.373024,76.8054737 106.202607,76.8054737 C108.239128,76.8054737 110.323107,75.9963509 111.649149,75.138807 L112.738597,77.6152982 C111.081045,78.7591579 108.239128,79.8075789 105.776878,79.8075789 C98.626024,79.8075789 95.2160031,74.0433684 95.2160031,67.6117895 C95.2160031,61.0847719 98.910076,56.2258246 104.309159,56.2258246 C110.086514,56.2258246 113.259243,60.8468772 113.259243,67.8496842 L113.259243,68.6602105 L98.910076,68.6602105 Z" id="Fill-26" fill="#FEFEFE" mask="url(#mask-6)"></path>
            </g>
        </g>
    </g>
</svg>