<svg width="134px" height="78px" viewBox="0 0 134 78" version="1.1" xmlns="http://www.w3.org/2000/svg" xmlns:xlink="http://www.w3.org/1999/xlink">
    <defs>
        <polygon id="path-1" points="0.0587035156 0.108791518 8.34906377 0.108791518 8.34906377 8.34782609 0.0587035156 8.34782609"></polygon>
        <polygon id="path-3" points="0.137611719 0.0451826087 2.25784766 0.0451826087 2.25784766 2.19213913 0.137611719 2.19213913"></polygon>
    </defs>
    <g id="Desktop" stroke="none" stroke-width="1" fill="none" fill-rule="evenodd">
        <g id="Desktop-HD-Copy-52" transform="translate(-331.000000, -4029.000000)">
            <g id="Group-43" transform="translate(331.000000, 4029.000000)">
                <path d="M65.0258555,0.000104347826 L130.215285,0.000104347826 C130.214238,21.626713 130.216332,43.2528 130.214238,64.8791478 C108.484777,64.8801913 86.7555781,64.8791478 65.0258555,64.8796116 L65.0258555,0.000104347826 Z" id="Fill-1" fill="#000000"></path>
                <path d="M0,0.000104347826 L65.1077734,0.000104347826 C65.1067266,21.626713 65.1085586,43.2525391 65.1067266,64.8791478 C43.4044844,64.8801913 21.7022422,64.8791478 0,64.8796116 L0,0.000104347826 Z" id="Fill-3" fill="#FEFEFE"></path>
                <path d="M31.3643227,3.61330435 C34.2793461,3.28826087 37.2393852,3.4533913 40.1164594,4.01843478 C45.3369633,5.0546087 50.2504711,7.56834783 54.1432758,11.1876522 C56.3074281,13.1992174 58.2022719,15.5214783 59.6362289,18.1064348 C54.2422055,21.1737391 48.8473969,24.2381739 43.4656742,27.3268696 C42.4012641,25.4874783 40.7843656,23.9666087 38.8560219,23.0582609 C37.0737172,22.2161739 35.04435,21.8689565 33.0872172,22.1368696 C30.7372445,22.4107826 28.503475,23.5377391 26.8693031,25.2388696 C25.2175961,26.931913 24.1770023,29.2012174 23.9788813,31.5550435 C23.6182328,35.22 25.4068188,38.9971304 28.4759945,41.0483478 C31.1549477,42.9216522 34.7431117,43.3951304 37.8224945,42.2966087 C40.1941898,41.4811304 42.2204164,39.7664348 43.4667211,37.6012174 C48.8442563,40.700087 54.2524125,43.7483478 59.6383227,46.8328696 C57.7382445,50.2108696 55.1022133,53.1631304 52.0298969,55.5263478 C48.8207016,57.9714783 45.0998461,59.750087 41.1685688,60.6808696 C36.6560141,61.758 31.8840961,61.7384348 27.3788695,60.63 C23.5467836,59.685913 19.9146508,57.9472174 16.7771664,55.5607826 C13.3871234,52.9912174 10.5681508,49.6724348 8.59897891,45.9075652 C5.36727578,39.8136522 4.46748672,32.5505217 6.05376406,25.8477391 C7.29038516,20.5181739 10.0962719,15.5621739 14.0285961,11.7453913 C18.6594477,7.18147826 24.8815492,4.2513913 31.3643227,3.61330435" id="Fill-5" fill="#000000"></path>
                <path d="M69.783693,4.64953043 C75.9749117,4.65474783 82.1663922,4.64874783 88.3583961,4.65266087 C94.5765719,12.3746609 100.756798,20.1261391 106.980994,27.8421391 C106.995127,20.1110087 106.977853,12.3785739 106.989107,4.64744348 C113.181634,4.65474783 119.374423,4.65266087 125.567213,4.64874783 C125.564857,23.1822261 125.563287,41.7162261 125.567998,60.2489217 C125.381392,60.2512696 125.199498,60.2554435 125.016556,60.258313 C123.415884,60.2431826 121.816521,60.2713565 120.217158,60.2512696 C117.391642,60.2677043 114.564818,60.2470957 111.738779,60.2554435 C110.139939,60.2512696 108.541623,60.2622261 106.943045,60.2489217 C100.756798,52.5313565 94.5592984,44.8213565 88.3767164,37.1004 C88.3521148,44.8164 88.3722672,52.5331826 88.3662477,60.2502261 C87.4073102,60.2622261 86.4481109,60.2530957 85.490482,60.2554435 C85.3520328,60.2562261 85.2156773,60.2562261 85.0795836,60.2554435 C80.0760445,60.2755304 75.0709352,60.2512696 70.0650406,60.2562261 C69.9938531,60.2562261 69.8499078,60.2541391 69.7781969,60.2541391 C69.7826461,41.7193565 69.7721773,23.1845739 69.783693,4.64953043" id="Fill-7" fill="#FEFEFE"></path>
                <path d="M3.90672812,70.1589913 C4.91984141,69.4431652 6.26507578,69.2122957 7.45511094,69.5736 C8.47947812,69.8608174 9.34053281,70.5753391 9.89694688,71.4701217 C9.18114609,71.8752522 8.47529063,72.2978609 7.75320859,72.6928174 C7.37947422,72.173687 6.76365,71.8011652 6.10254844,71.8997739 C5.44982187,71.9629043 4.87796641,72.4580348 4.70654062,73.0869913 C4.38070078,74.0511652 5.20275937,75.1822957 6.22398594,75.1786435 C6.84425938,75.2360348 7.41506797,74.8624696 7.75922812,74.3717739 C8.46822422,74.7922957 9.18611875,75.1953391 9.90113438,75.6054261 C9.19318516,76.7720348 7.93615,77.5632522 6.56945469,77.6782957 L6.04130625,77.6782957 C4.54689219,77.5713391 3.13334922,76.6327304 2.52694687,75.2574261 C2.16420469,74.521513 2.10505625,73.6791652 2.20006016,72.8759478 C2.37174766,71.7889043 3.00484531,70.7921217 3.90672812,70.1589913" id="Fill-9" fill="#FEFEFE"></path>
                <g id="Group-13" transform="translate(36.378906, 69.330522)">
                    <mask id="mask-2" fill="white">
                        <use xlink:href="#path-1"></use>
                    </mask>
                    <g id="Clip-12"></g>
                    <path d="M4.16716445,2.71288696 C4.85103555,2.69775652 5.5301957,3.18610435 5.67361758,3.87349565 C5.96072305,4.84366957 5.01748867,5.8814087 4.02164883,5.71366957 C3.34536758,5.63201739 2.77141836,5.05523478 2.71410195,4.37723478 C2.6295668,3.71071304 3.06768398,3.0288 3.69973477,2.80706087 C3.85153164,2.74653913 4.00934805,2.71627826 4.16716445,2.71288696 M4.05724258,0.109147826 C2.9967582,0.116973913 1.95668789,0.589669565 1.23068008,1.35636522 C0.490277734,2.09853913 0.0882777344,3.1394087 0.0587035156,4.17871304 C0.0668167969,5.13166957 0.382973047,6.08697391 0.995656641,6.82601739 C1.67193789,7.67488696 2.70049258,8.19714783 3.76882852,8.34793043 L4.63197695,8.34793043 C5.71339883,8.20314783 6.75582461,7.68114783 7.43289102,6.81584348 C8.13560586,5.97793043 8.44260195,4.85045217 8.32430508,3.77175652 C8.15863711,1.76906087 6.29886367,0.0465391304 4.26923477,0.111234783 C4.1985707,0.107843478 4.12816836,0.108886957 4.05724258,0.109147826" id="Fill-11" fill="#FEFEFE" mask="url(#mask-2)"></path>
                </g>
                <path d="M49.562334,72.0408522 C50.3351895,72.0450261 51.0810879,72.7092 51.0533457,73.5040696 C51.1454707,74.4439826 50.1326191,75.2680696 49.2278574,75.0137217 C48.4311855,74.861113 47.8653496,73.9624174 48.0990645,73.1834609 C48.2348965,72.6458087 48.6905488,72.2036348 49.2328301,72.081287 C49.3422285,72.0536348 49.4518887,72.0400696 49.562334,72.0408522 M49.518627,69.437113 C49.2741816,69.4392 49.0289512,69.4574609 48.7884316,69.4929391 C47.7405098,69.6794609 46.7875918,70.3047652 46.1738613,71.1679826 C45.5098809,72.0953739 45.2617715,73.3076348 45.5098809,74.4205043 C45.7286777,75.467113 46.3811426,76.4158957 47.2770059,77.001287 C47.830541,77.3803304 48.4892871,77.571287 49.1462012,77.6782435 L49.981084,77.6782435 C51.1158965,77.5295478 52.2025527,76.9519826 52.8819746,76.0214609 C53.622377,75.0552 53.8526895,73.7589391 53.5891387,72.5829391 C53.3305605,71.4904174 52.6029824,70.515287 51.6202285,69.9666783 C50.9868691,69.5839826 50.2530098,69.4305913 49.518627,69.437113" id="Fill-14" fill="#FEFEFE"></path>
                <path d="M106.976388,72.0383217 C107.706059,72.0119739 108.441751,72.5527565 108.533876,73.3035391 C108.732259,74.2554522 107.801848,75.2003217 106.846313,75.0364957 C106.114024,74.9449304 105.501864,74.2471043 105.553946,73.5067565 C105.535888,72.9203217 105.951497,72.3800609 106.478598,72.1525826 C106.638247,72.0824087 106.807841,72.0443217 106.976388,72.0383217 M107.047837,69.411887 C105.480927,69.4043217 103.937833,70.3580609 103.296884,71.7964957 C102.704614,73.0455391 102.801712,74.5932783 103.552059,75.7564957 C104.226247,76.8479739 105.429891,77.541887 106.69818,77.6783217 L107.433348,77.6783217 C108.389407,77.5559739 109.315106,77.1464087 109.997145,76.4592783 C110.635216,75.8055391 111.056321,74.9423217 111.166766,74.0360609 C111.291083,73.0956261 111.048208,72.1254522 110.548587,71.3230174 C109.888794,70.2946696 108.759216,69.5710174 107.53568,69.4450174 C107.3742,69.4231043 107.210102,69.4126696 107.047837,69.411887" id="Fill-16" fill="#FEFEFE"></path>
                <path d="M14.5136133,71.7708261 C14.7863242,72.5813478 15.0171602,73.4080435 15.2336016,74.2344783 C14.7606758,74.2368261 14.2869648,74.2363043 13.8140391,74.2323913 C14.0438281,73.4103913 14.2788516,72.5907391 14.5136133,71.7708261 M16.505293,69.5847391 C15.1817812,69.5878696 13.8569609,69.5891739 12.5321406,69.5873478 C11.7179336,72.2323043 10.8840977,74.8704783 10.0528789,77.5102174 C10.9924492,77.5083913 11.9346367,77.511 12.8744687,77.5076087 C12.9972148,77.0636087 13.1220547,76.6227391 13.2547461,76.1816087 C14.1027148,76.185 14.9538242,76.1531739 15.8007461,76.1920435 C15.9732187,76.6185652 16.0472852,77.0766522 16.2014375,77.5102174 C17.1331562,77.5044783 18.0633047,77.5146522 18.9950234,77.5052609 C18.1596172,74.8665652 17.3459336,72.2216087 16.505293,69.5847391" id="Fill-18" fill="#FEFEFE"></path>
                <path d="M23.2720051,71.8956522 C23.5525676,71.8948696 23.8336535,71.8935652 24.1147395,71.8956522 C24.4814074,71.8711304 24.8229504,72.2274783 24.7761027,72.5932174 C24.7768879,72.927913 24.4620402,73.2354783 24.1249465,73.2242609 C23.5601574,73.2289565 22.9940598,73.2229565 22.4292707,73.2268696 C22.4292707,72.783913 22.4274387,72.3412174 22.4292707,71.8982609 C22.7103566,71.8982609 22.9914426,71.8966957 23.2720051,71.8956522 M19.7966418,69.5872174 L19.7966418,77.5077391 C20.6741848,77.5126957 21.5519895,77.5093043 22.4292707,77.510087 C22.4313645,76.7386957 22.4253449,75.9657391 22.4345051,75.1943478 C22.7184699,75.1883478 23.0034816,75.1893913 23.2874465,75.1943478 C23.6836887,75.9657391 24.0697238,76.7413043 24.4670129,77.5126957 C25.4434855,77.5066957 26.4194348,77.5134783 27.3956457,77.510087 C26.9025676,76.6338261 26.3555754,75.7883478 25.8611887,74.912087 C25.9745129,74.7936522 26.120552,74.7166957 26.2493176,74.6188696 C26.9939074,74.0984348 27.4668332,73.1911304 27.4034973,72.2801739 C27.4045441,70.8597391 26.120552,69.6422609 24.717216,69.6026087 C23.0780715,69.5668696 21.4370949,69.5994783 19.7966418,69.5872174" id="Fill-20" fill="#FEFEFE"></path>
                <path d="M28.1297668,71.8969304 C28.1449465,71.1271043 28.1357863,70.3564957 28.1350012,69.5871913 C30.7883059,69.5895391 33.4418723,69.585887 36.0954387,69.5887565 C36.0975324,70.3578 36.0985793,71.1271043 36.0943918,71.8956261 C35.257677,71.8987565 34.4204387,71.8909304 33.582677,71.9008435 C33.5818918,73.7702348 33.582677,75.6401478 33.5818918,77.5092783 C32.5952121,77.5084957 31.6093176,77.5113652 30.6228996,77.5084957 L30.6228996,71.8969304 C29.7914191,71.8969304 28.9612473,71.8956261 28.1297668,71.8969304" id="Fill-22" fill="#FEFEFE"></path>
                <path d="M54.5118543,69.5896174 C55.3901824,69.5846609 56.2674637,69.5909217 57.1460535,69.5857043 C58.0487215,70.6737913 58.9079441,71.7981391 59.8147996,72.8820522 C59.834952,71.7848348 59.8189871,70.6873565 59.8242215,69.5896174 C60.701241,69.5846609 61.578784,69.5919652 62.4560652,69.5846609 C62.4510926,72.226487 62.4458582,74.8685739 62.4592059,77.5114435 C61.5829715,77.508313 60.7064754,77.508313 59.830241,77.5114435 C58.9189363,76.4262261 58.061284,75.2982261 57.1562605,74.2088348 C57.110198,75.3070957 57.1408191,76.4090087 57.1389871,77.5090957 C56.262491,77.5101391 55.3873035,77.5090957 54.5118543,77.5090957 C54.5108074,74.8693565 54.5108074,72.2298783 54.5118543,69.5896174" id="Fill-24" fill="#FEFEFE"></path>
                <path d="M67.8348566,69.5857826 C68.7171105,69.5936087 69.600673,69.5787391 70.482927,69.5936087 C71.3646574,70.6973478 72.2348723,71.8120435 73.1438215,72.8923043 C73.1592629,71.790913 73.1459152,70.6892609 73.1508879,69.587087 C74.0224113,69.5896957 74.8926262,69.5857826 75.7633645,69.588913 L75.7633645,77.5091739 C74.8871301,77.5083913 74.0122043,77.5123043 73.1357082,77.5073478 C72.2298996,76.4143043 71.3654426,75.2860435 70.4575402,74.1945652 C70.449427,75.299087 70.4533527,76.4046522 70.4557082,77.5091739 C69.5823527,77.5102174 68.7100441,77.5091739 67.8369504,77.5091739 C67.8348566,74.8686522 67.8398293,72.2265652 67.8348566,69.5857826" id="Fill-26" fill="#FEFEFE"></path>
                <path d="M76.924977,69.5847652 C79.2393559,69.5949391 81.5539965,69.5795478 83.8683754,69.5928522 C83.8702074,70.1495478 83.863141,70.7067652 83.8723012,71.2645043 C83.8670668,71.475287 83.8497934,71.687113 83.8333051,71.8986783 C82.4035355,71.8968522 80.9735043,71.8898087 79.543473,71.9028522 C79.5395473,72.1402435 79.563102,72.377113 79.5795902,72.6155478 C80.7827113,72.6105913 81.9858324,72.6145043 83.1892152,72.6124174 C83.1839809,73.2622435 83.1871215,73.9118087 83.1871215,74.561113 C81.9735316,74.5642435 80.7609887,74.555113 79.5476605,74.5658087 C79.5489691,74.8397217 79.5489691,75.1149391 79.5560355,75.3909391 C80.9931332,75.4055478 82.431016,75.3956348 83.8683754,75.3945913 C83.8670668,75.7144174 83.8683754,76.0342435 83.8683754,76.355113 C83.8683754,76.7385913 83.8670668,77.1225913 83.8683754,77.5073739 C81.5547816,77.5136348 79.2404027,77.5073739 76.926809,77.5092 C76.9281176,74.8686783 76.9312582,72.2265913 76.924977,69.5847652" id="Fill-28" fill="#FEFEFE"></path>
                <path d="M84.750734,69.5888348 C87.4071793,69.5896174 90.0638863,69.5817913 92.7205934,69.5930087 C92.713527,70.3594435 92.7297535,71.1269217 92.7101246,71.8946609 C91.8789059,71.8946609 91.0476871,71.8925739 90.2159449,71.8946609 C90.2154215,73.7669217 90.2159449,75.6381391 90.2159449,77.5090957 L87.258523,77.5090957 C87.2572145,75.6373565 87.258523,73.7661391 87.2572145,71.8936174 C86.4220699,71.880313 85.5845699,71.9251826 84.750734,71.8690957 C84.7496871,71.1089217 84.7486402,70.3482261 84.750734,69.5888348" id="Fill-30" fill="#FEFEFE"></path>
                <path d="M93.3764605,69.591913 C94.266566,69.5835652 95.1574566,69.5869565 96.0483473,69.5908696 C96.2585074,70.7493913 96.462648,71.9110435 96.7191324,73.0612174 C97.1656246,71.9994783 97.5966754,70.9304348 98.0439527,69.8694783 C98.4873043,70.9304348 98.8976793,72.008087 99.377148,73.0541739 C99.6137418,71.9016522 99.8066285,70.7402609 100.047933,69.5877391 C100.930187,69.5895652 101.812703,69.5827826 102.69548,69.5929565 C102.188531,72.2313913 101.687339,74.8703478 101.181437,77.5085217 C100.447578,77.5085217 99.7129332,77.5134783 98.9785504,77.5064348 C98.6741715,76.7908696 98.3627262,76.0789565 98.0408121,75.3712174 C97.7047652,76.0776522 97.4176598,76.8057391 97.0818746,77.5113913 C96.3595309,77.5085217 95.636402,77.5085217 94.9156285,77.5121739 C94.3678512,74.8789565 93.9114137,72.2277391 93.3764605,69.591913" id="Fill-32" fill="#FEFEFE"></path>
                <path d="M114.649536,71.8930957 C115.216681,71.8975304 115.782255,71.8884 116.350185,71.8957043 C116.771814,71.8795304 117.138743,72.4025739 116.942454,72.7865739 C116.849282,73.0297043 116.610595,73.2211826 116.34495,73.224313 C115.780423,73.2337043 115.214064,73.2219652 114.649536,73.2266609 C114.649536,72.7818783 114.650845,72.3370957 114.649536,71.8930957 M114.371068,69.5872696 C113.580154,69.5880522 112.789501,69.5919652 111.998849,69.5896174 C111.998064,72.2298783 111.997017,74.868313 111.998849,77.5075304 C112.883458,77.5098783 113.767282,77.5114435 114.651892,77.5101391 C114.651107,76.7317043 114.647704,75.9517043 114.651892,75.1740522 C114.934025,75.1717043 115.218775,75.1714435 115.502216,75.1813565 C115.875427,75.9613565 116.281091,76.7262261 116.659013,77.5054435 C117.644384,77.5122261 118.631849,77.5109217 119.618267,77.5075304 C119.097708,76.6278783 118.551763,75.7617913 118.053189,74.8709217 C118.886501,74.4430957 119.472489,73.614313 119.623763,72.6947478 C119.623763,72.4860522 119.621931,72.2789217 119.620884,72.0715304 C119.517767,71.5104 119.304989,70.9570957 118.908224,70.5365739 C118.368298,69.9310957 117.556185,69.5778783 116.743548,69.5974435 C115.952634,69.5870087 115.161982,69.586487 114.371068,69.5872696" id="Fill-34" fill="#FEFEFE"></path>
                <path d="M120.46511,77.5084174 C120.458305,74.8686783 120.458305,72.2299826 120.46511,69.5897217 C121.351813,69.5889391 122.23904,69.5816348 123.127052,69.5959826 C123.126005,70.4482435 123.111348,71.301287 123.133856,72.1545913 C123.808044,71.3083304 124.439309,70.4307652 125.111665,69.5834609 C126.239149,69.5959826 127.366634,69.5795478 128.494641,69.5918087 C127.460591,70.8421565 126.456899,72.1165043 125.41997,73.3647652 C126.397489,74.7778957 127.483098,76.1187652 128.496473,77.5073739 C127.365587,77.5123304 126.23627,77.5084174 125.106169,77.5102435 C124.448731,76.5278087 123.788938,75.5472 123.136212,74.5618957 C123.105329,75.5435478 123.131239,76.5259826 123.123911,77.5084174 C122.237208,77.5102435 121.350766,77.5102435 120.46511,77.5084174" id="Fill-36" fill="#FEFEFE"></path>
                <path d="M129.743354,75.3845217 C130.328557,75.3756522 130.915069,75.3795652 131.50001,75.3795652 C131.50001,75.4943478 131.501319,75.6093913 131.504459,75.726 C131.290897,75.7236522 131.076549,75.7226087 130.866127,75.7215652 C130.785256,76.3171304 130.837338,76.9189565 130.822944,77.5184348 C130.679784,77.5176522 130.540026,77.5184348 130.400006,77.5194783 C130.39608,76.9210435 130.402362,76.322087 130.39608,75.7246957 C130.179639,75.7226087 129.966077,75.7236522 129.752776,75.7236522 C129.747541,75.6093913 129.744401,75.4966957 129.743354,75.3845217" id="Fill-38" fill="#FEFEFE"></path>
                <g id="Group-42" transform="translate(131.644531, 75.330522)">
                    <mask id="mask-4" fill="white">
                        <use xlink:href="#path-3"></use>
                    </mask>
                    <g id="Clip-41"></g>
                    <path d="M0.137611719,0.0519652174 C0.352221094,0.0490956522 0.5686625,0.0467478261 0.785103906,0.0451826087 C0.932975,0.614921739 1.04342031,1.19561739 1.21746328,1.75831304 C1.34073281,1.18726957 1.46452578,0.614921739 1.60951797,0.0477913043 C1.82386562,0.0467478261 2.04056875,0.0459652174 2.25805703,0.0467478261 L2.25805703,2.18874783 C2.1599125,2.19005217 1.96388516,2.19005217 1.86574063,2.19109565 C1.85972109,1.59761739 1.88013516,1.00492174 1.85134609,0.412747826 C1.65217812,0.989791304 1.55822109,1.59553043 1.40590078,2.18613913 C1.30095156,2.18718261 1.09052969,2.18874783 0.985057031,2.19005217 C0.828025781,1.60544348 0.729096094,1.00805217 0.569185938,0.425008696 C0.5184125,1.00909565 0.544322656,1.59761739 0.544322656,2.18405217 C0.408228906,2.18613913 0.272396875,2.18796522 0.139705469,2.19213913 C0.136303125,1.4784 0.138658594,0.765704348 0.137611719,0.0519652174" id="Fill-40" fill="#FEFEFE" mask="url(#mask-4)"></path>
                </g>
            </g>
        </g>
    </g>
</svg>