<svg width="134px" height="35px" viewBox="0 0 134 35" version="1.1" xmlns="http://www.w3.org/2000/svg" xmlns:xlink="http://www.w3.org/1999/xlink">
    <defs>
        <polygon id="path-1" points="0.246126095 0.221514493 13.0888648 0.221514493 13.0888648 13.2377101 0.246126095 13.2377101"></polygon>
        <polygon id="path-3" points="2.55238095e-05 0 22.6442389 0 22.6442389 28.5606594 2.55238095e-05 28.5606594"></polygon>
    </defs>
    <g id="Desktop" stroke="none" stroke-width="1" fill="none" fill-rule="evenodd">
        <g id="Desktop-HD-Copy-52" transform="translate(-1194.000000, -4051.000000)">
            <g id="Group-19" transform="translate(1194.000000, 4051.000000)">
                <path d="M40.1840731,22.8516522 L37.4872274,22.8516522 L37.4872274,12.1317609 L40.1840731,12.1317609 C43.3944579,12.1317609 45.7064046,14.4290797 45.7064046,17.4915797 C45.7064046,20.5543333 43.3944579,22.8516522 40.1840731,22.8516522 M40.1840731,8.55897101 L31.5463055,8.55897101 L31.3247589,8.90465942 L33.6346636,12.4383913 L33.6346636,26.4241884 L40.1840731,26.4241884 C45.7064046,26.4241884 49.6873531,22.4684275 49.6873531,17.4915797 C49.6873531,12.5149855 45.7064046,8.55897101 40.1840731,8.55897101" id="Fill-1" fill="#FFFFFF"></path>
                <path d="M73.193531,22.2130036 L73.064891,22.2130036 L70.1112758,13.9180036 L66.3868415,13.9180036 L71.2672491,26.2965906 L71.0102244,26.9352138 C70.6508491,27.8284746 69.9826358,28.4660833 68.8269177,28.4660833 C68.0566091,28.4660833 67.4141749,28.2106848 67.4141749,28.2106848 L67.4141749,31.4010109 C67.4141749,31.4010109 68.4417634,31.7842355 69.7261215,31.7842355 C72.0375577,31.7842355 73.5529063,30.2526051 74.6060187,27.44525 L79.7429406,13.9180036 L76.0185063,13.9180036 L73.193531,22.2130036 Z" id="Fill-3" fill="#FFFFFF"></path>
                <path d="M94.3861288,23.2338877 C91.1754888,23.2338877 88.6065173,20.6821848 88.6065173,17.4916051 C88.6065173,14.301279 91.1754888,11.7495761 94.3861288,11.7495761 C97.597024,11.7495761 100.164974,14.301279 100.164974,17.4916051 C100.164974,20.6821848 97.597024,23.2338877 94.3861288,23.2338877 M94.3861288,8.17577174 C88.8635421,8.17577174 84.6253135,12.3871848 84.6253135,17.4916051 C84.6253135,22.596279 88.8635421,26.8074384 94.3861288,26.8074384 C99.9079497,26.8074384 104.145923,22.596279 104.145923,17.4916051 C104.145923,12.3871848 99.9079497,8.17577174 94.3861288,8.17577174" id="Fill-5" fill="#FFFFFF"></path>
                <path d="M114.037114,13.6635688 C111.596782,13.6635688 110.31319,15.7054891 110.31319,15.7054891 L110.18455,15.7054891 L110.18455,13.9182065 L106.716885,13.9182065 L106.716885,26.4243659 L110.18455,26.4243659 L110.18455,19.7888225 C110.18455,18.1293659 111.340523,16.9807065 112.881141,16.9807065 C114.294139,16.9807065 115.193087,17.8747283 115.193087,19.4058514 L115.193087,26.4243659 L118.661007,26.4243659 L118.661007,18.8958152 C118.661007,15.7054891 116.606085,13.6635688 114.037114,13.6635688" id="Fill-7" fill="#FFFFFF"></path>
                <g id="Group-11" transform="translate(120.727619, 13.442029)">
                    <mask id="mask-2" fill="white">
                        <use xlink:href="#path-1"></use>
                    </mask>
                    <g id="Clip-10"></g>
                    <path d="M3.84243086,5.45376087 C4.22809562,4.30510145 5.25542895,3.28426812 6.6674061,3.28426812 C8.08040419,3.28426812 9.10799276,4.30510145 9.49263657,5.45376087 L3.84243086,5.45376087 Z M13.0889413,6.4745942 C13.0889413,3.02861594 10.2639661,0.221514493 6.7960461,0.221514493 C3.20050705,0.221514493 0.246126095,3.15644203 0.246126095,6.72923188 C0.246126095,10.3027826 3.20050705,13.2377101 6.9246861,13.2377101 C10.3923509,13.2377101 12.3186328,11.1960435 12.3186328,11.1960435 L10.5199699,8.77089855 C10.5199699,8.77089855 9.36501752,10.1749565 7.18171086,10.1749565 C5.25542895,10.1749565 4.22809562,9.15412319 3.84243086,8.00546377 L12.9605566,8.00546377 C12.9605566,8.00546377 13.0889413,7.36785507 13.0889413,6.4745942 Z" id="Fill-9" fill="#FFFFFF" mask="url(#mask-2)"></path>
                </g>
                <path d="M58.1653928,23.4893623 C56.3677509,23.4893623 54.9547528,22.0853043 54.9547528,20.1712101 C54.9547528,18.2571159 56.3677509,16.8540725 58.1653928,16.8540725 C59.9510385,16.8540725 61.354848,18.2383478 61.3742461,20.1318986 L61.3742461,20.2105217 C61.354848,22.1040725 59.9510385,23.4893623 58.1653928,23.4893623 Z M61.3742461,13.8745072 L61.3742461,14.4591087 C60.4252709,13.9526232 59.3333623,13.6634928 58.1653928,13.6634928 C54.441469,13.6634928 51.4873432,16.5984203 51.4873432,20.1712101 C51.4873432,23.7447609 54.441469,26.6796884 58.1653928,26.6796884 C59.3333623,26.6796884 60.4252709,26.3908116 61.3742461,25.8843261 L61.3742461,26.6373333 L64.8488023,26.6373333 L64.8488023,13.8745072 L61.3742461,13.8745072 Z" id="Fill-12" fill="#FFFFFF"></path>
                <polygon id="Fill-14" fill="#FFFFFF" points="17.2493989 34.4744928 17.2493989 35 2.59873219 35 2.59873219 34.4821014 5.06662933 30.7046377 14.7853303 30.7046377"></polygon>
                <g id="Group-18">
                    <mask id="mask-4" fill="white">
                        <use xlink:href="#path-3"></use>
                    </mask>
                    <g id="Clip-17"></g>
                    <path d="M18.3932484,4.14131159 C15.560616,1.37910145 12.0549208,-0.000101449275 7.87207886,-0.000101449275 L0.340513143,-0.000101449275 L2.55238095e-05,0.518557971 L2.600136,4.49511594 L2.600136,14.2804058 L5.66707695,14.2804058 L8.60052838,9.78594928 L10.6906731,9.78594928 L2.600136,22.1731594 L2.600136,28.5606594 L7.87207886,28.5606594 C12.0549208,28.5606594 15.560616,27.1814565 18.3932484,24.4192464 C21.2258808,21.6572899 22.6442389,18.2787754 22.6442389,14.2804058 C22.6442389,10.2817826 21.2258808,6.90326812 18.3932484,4.14131159" id="Fill-16" fill="#FFFFFF" mask="url(#mask-4)"></path>
                </g>
            </g>
        </g>
    </g>
</svg>