<svg width="134px" height="35px" viewBox="0 0 134 35" version="1.1" xmlns="http://www.w3.org/2000/svg" xmlns:xlink="http://www.w3.org/1999/xlink">
    <g id="Desktop" stroke="none" stroke-width="1" fill="none" fill-rule="evenodd">
        <g id="Desktop-HD-Copy-52" transform="translate(-759.000000, -4051.000000)">
            <g id="Group-13" transform="translate(759.000000, 4051.000000)">
                <polygon id="Fill-1" fill="#FEFEFE" points="0 34.6150714 133.349245 34.6150714 133.349245 0.713642857 0 0.713642857"></polygon>
                <g id="Group-12" transform="translate(7.840426, 8.186500)" fill="#010202">
                    <path d="M45.8508085,12.0179286 L43.5749468,12.0179286 L45.8508085,7.97507143 L45.8508085,12.0179286 Z M45.4366915,0.510785714 L38.9198723,11.9143571 C38.7851596,12.1565 37.4971915,14.1200714 34.8849043,14.2986429 C32.2833085,14.4193571 30.083,11.9629286 30.125766,9.32292857 C30.2112979,6.69507143 32.169266,4.59578571 34.7815532,4.55364286 C37.0046702,4.59578571 38.6340532,6.30935714 38.6091064,6.3165 C39.0830957,6.72864286 39.3917234,7.0265 39.7473936,7.56007143 L42.1266064,3.41364286 C41.7010851,2.96507143 41.5207553,2.7715 40.9890319,2.3765 C39.6376277,1.16292857 37.6589894,0.195071429 34.8849043,0.0957857143 C32.2070426,0.0407857143 29.5163511,1.15792857 27.4365,3.82792857 C26.1570851,5.53721429 25.6410426,7.06435714 25.5747553,9.32292857 C25.6039787,11.9593571 26.5590851,14.1015 27.9539681,15.6465 C30.3424468,18.1486429 33.2348511,18.7515 34.7815532,18.7572143 C37.0032447,18.6600714 38.6212234,18.1229286 40.1615106,17.0979286 C40.6440532,16.7629286 41.1700745,16.3136429 41.7132021,15.7500714 L45.8508085,15.7500714 L45.8508085,18.3422143 L50.0924787,18.3422143 L50.0924787,0.510785714 L45.4366915,0.510785714 Z" id="Fill-2"></path>
                    <polygon id="Fill-4" points="54.2703564 18.4457857 54.2703564 4.73078571 50.9182181 4.73078571 50.9182181 0.585785714 62.1171968 0.585785714 62.1171968 4.73078571 58.6887926 4.73078571 58.6887926 18.4457857"></polygon>
                    <polygon id="Fill-6" points="71.8329809 11.6133571 67.3126191 11.6133571 67.3126191 18.4455 62.894183 18.4455 62.894183 0.586214286 67.3126191 0.586214286 67.3126191 7.36835714 71.8329809 7.36835714 71.8329809 0.586214286 76.2763638 0.586214286 76.2763638 18.4455 71.8329809 18.4455"></polygon>
                    <path d="M93.5124702,14.3512143 C91.0242043,14.3512143 88.7640234,12.1912143 88.7640234,9.37764286 C88.7640234,6.7655 90.8716723,4.6805 93.5630766,4.6805 C96.1033745,4.6805 98.2110234,6.7655 98.2110234,9.37764286 C98.2110234,12.2912143 96.1033745,14.3512143 93.5124702,14.3512143 Z M112.949598,0.586214286 L112.949598,10.5076429 L106.321587,0.586214286 L102.334374,0.586214286 L102.334374,6.6205 C101.883194,5.24692857 101.097726,3.97907143 99.9879489,2.89692857 C98.2359702,1.18835714 95.9508426,0.259071429 93.5381298,0.259071429 C90.9728851,0.259071429 88.7383638,1.13835714 86.9607255,2.87192857 C85.1830872,4.60478571 84.2180021,6.86621429 84.2180021,9.32764286 C84.2180021,11.2883571 84.6976936,13.0126429 85.6421085,14.5019286 L82.2628851,14.5019286 L82.2628851,0.586214286 L77.8693957,0.586214286 L77.8693957,18.4455 L87.4176085,18.4455 L87.4176085,16.5612143 C89.0926085,18.0219286 91.1525021,18.7719286 93.5124702,18.7719286 C96.0263957,18.7719286 98.4141617,17.7926429 100.16614,15.9840714 C101.179694,14.9519286 101.906002,13.7197857 102.334374,12.3533571 L102.334374,18.4455 L106.752811,18.4455 L106.752811,8.49835714 L113.48346,18.4455 L117.368034,18.4455 L117.368034,0.586214286 L112.949598,0.586214286 Z" id="Fill-8"></path>
                    <path d="M6.50213617,14.527 L4.72449787,14.527 L4.72449787,4.42914286 L6.47718936,4.42914286 C9.72740213,4.42914286 11.4793809,6.23771429 11.4793809,9.45271429 C11.4793809,12.9691429 9.87993404,14.527 6.50213617,14.527 Z M25.5743277,4.44985714 L25.5743277,0.510571429 L15.7467106,0.510571429 L15.7467106,7.85985714 C15.4494872,5.73342857 14.600583,3.99485714 13.2313596,2.72128571 C11.3525085,0.962714286 9.34678511,0.585571429 6.47718936,0.585571429 L0.306061702,0.585571429 L0.306061702,18.4455714 L7.08660426,18.4455714 C9.6254766,18.4455714 11.3275617,18.0934286 13.2577319,16.2355714 C14.6205404,14.9062857 15.4530511,13.2284286 15.7467106,11.247 L15.7467106,18.342 L25.5743277,18.342 L25.5743277,14.5062857 L20.0910191,14.5062857 L20.0910191,11.1884286 L24.8501574,11.1884286 L24.8501574,7.35342857 L20.0910191,7.35342857 L20.0910191,4.44985714 L25.5743277,4.44985714 Z" id="Fill-10"></path>
                </g>
            </g>
        </g>
    </g>
</svg>