<svg width="134px" height="82px" viewBox="0 0 134 82" version="1.1" xmlns="http://www.w3.org/2000/svg" xmlns:xlink="http://www.w3.org/1999/xlink">
    <defs>
        <polygon id="path-1" points="0.0277733962 0.0129567652 8.60769226 0.0129567652 8.60769226 9.69206843 0.0277733962 9.69206843"></polygon>
        <polygon id="path-3" points="0.0997541509 0.0129567652 8.67992585 0.0129567652 8.67992585 9.69206843 0.0997541509 9.69206843"></polygon>
    </defs>
    <g id="Desktop" stroke="none" stroke-width="1" fill="none" fill-rule="evenodd">
        <g id="Desktop-HD-Copy-52" transform="translate(-978.000000, -4027.000000)">
            <g id="Group-42" transform="translate(978.000000, 4027.000000)">
                <polygon id="Fill-1" fill="#FFFFFF" points="66.066336 49.2048078 58.7458908 26.4706585 52.7541945 38.5578156 57.4137285 49.2048078"></polygon>
                <polygon id="Fill-2" fill="#FFFFFF" points="56.0197872 24.6877642 46.8143664 31.4361219 52.41544 33.6002588 57.549157 25.2440379"></polygon>
                <polygon id="Fill-3" fill="#FFFFFF" points="66.2452134 35.1763804 75.788036 44.6595593 87.2660209 43.4784022 89.9398266 35.1777832"></polygon>
                <polygon id="Fill-4" fill="#FFFFFF" points="67.2371547 48.1581792 71.0078642 43.4524249 64.7190925 35.9452802 63.7207925 37.2407017"></polygon>
                <polygon id="Fill-5" fill="#FFFFFF" points="84.0915862 7.93683484 76.7692447 30.6709841 88.6584579 24.4439577 91.0923277 13.0686575"></polygon>
                <polygon id="Fill-6" fill="#FFFFFF" points="89.3127572 33.7312037 86.0429043 28.6594463 77.0219232 32.3743142 77.9340081 33.7312037"></polygon>
                <polygon id="Fill-7" fill="#FFFFFF" points="63.6045538 2.55054432e-05 56.6041915 5.13108305 75.7733972 19.1812666 73.5765557 5.85008149"></polygon>
                <polygon id="Fill-8" fill="#FFFFFF" points="76.7413702 9.66119409 77.4557419 19.4648488 79.0170947 19.0084289 82.5330777 8.09158911"></polygon>
                <polygon id="Fill-9" fill="#FFFFFF" points="45.4642532 30.6362075 64.6342174 16.586024 51.3876853 14.5745372 42.7895626 22.3341857"></polygon>
                <polygon id="Fill-10" fill="#FFFFFF" points="56.2679274 6.67320591 55.9589689 12.7149353 65.4210123 15.058503 65.4733481 13.4201608"></polygon>
                <g id="Group-41" transform="translate(0.000000, 67.785689)">
                    <path d="M9.80062094,7.00735272 C9.80062094,7.65837916 9.6846983,8.30060622 9.45576057,8.9166902 C9.22833981,9.52856579 8.88183604,10.0808862 8.42636245,10.5583481 C7.97126811,11.0354274 7.38583981,11.4277011 6.68600585,11.7240743 C5.98693038,12.0205751 5.15120019,12.1709297 4.20194925,12.1709297 L1.79627,12.1709297 L1.79627,1.84326563 L4.20194925,1.84326563 C5.14930396,1.84326563 5.98503415,1.99362022 6.68600585,2.29024852 C7.38583981,2.58700435 7.97126811,2.97927807 8.42636245,3.45584728 C8.88183604,3.9334367 9.22833981,4.4858846 9.45576057,5.09776019 C9.68457189,5.71486439 9.80062094,6.35721897 9.80062094,7.00735272 M11.0368342,4.02563888 C10.6180209,3.17464977 10.0606568,2.45386594 9.38041717,1.88267154 C8.70308509,1.31441026 7.93245868,0.883495801 7.08964925,0.602043235 C6.25025302,0.322248523 5.40314547,0.180438258 4.57120774,0.180438258 L0.116592642,0.180438258 C0.0522473585,0.180438258 3.79245283e-05,0.233106998 3.79245283e-05,0.298018351 L3.79245283e-05,13.7160495 C3.79245283e-05,13.7809608 0.0522473585,13.8336295 0.116592642,13.8336295 L4.57120774,13.8336295 C5.4050417,13.8336295 6.25240208,13.6919468 7.08964925,13.4126622 C7.9318266,13.1314647 8.70245302,12.7006778 9.38041717,12.1316513 C10.0605304,11.560967 10.6176417,10.8431163 11.0363285,9.99850358 C11.4571643,9.14968243 11.670553,8.14349269 11.670553,7.00735272 C11.670553,5.884093 11.4571643,4.88096392 11.0368342,4.02563888" id="Fill-11" fill="#FFFFFF"></path>
                    <path d="M21.4878481,4.9523154 L21.4007481,4.72480684 C21.3834292,4.67940715 21.3401953,4.64943826 21.2920311,4.64943826 L14.5198481,4.64854557 C14.4888764,4.64854557 14.4591689,4.66078818 14.4374255,4.68285039 C14.4155557,4.7049126 14.4032934,4.73488149 14.4032934,4.76612566 L14.4032934,6.06358756 C14.4032934,6.12849891 14.4555028,6.18116765 14.5198481,6.18116765 L18.7709349,6.18116765 L14.1632311,13.4080075 C14.1435104,13.438614 14.1393387,13.4766171 14.1513481,13.5113045 L14.2374368,13.7556467 C14.2538708,13.8024491 14.2978632,13.8336933 14.3472915,13.8336933 L21.3297028,13.8336933 C21.3940481,13.8336933 21.4462575,13.7810246 21.4462575,13.7161132 L21.4462575,12.3821785 C21.4462575,12.3172672 21.3940481,12.2645984 21.3297028,12.2645984 L16.863584,12.2645984 L21.4771028,5.05829051 C21.4972028,5.02666376 21.5013745,4.98725785 21.4878481,4.9523154" id="Fill-13" fill="#FFFFFF"></path>
                    <path d="M26.0133568,0.715708243 C25.5556077,0.299841991 24.9409775,0.299841991 24.4832285,0.715708243 L24.4831021,0.715708243 C24.2478436,0.930081493 24.1287606,1.20503017 24.1287606,1.53264759 C24.1287606,1.86192286 24.2480964,2.13687154 24.4832285,2.35060715 C24.7107757,2.55758383 24.9681568,2.6624112 25.2480398,2.6624112 C25.5284285,2.6624112 25.7858096,2.55758383 26.0133568,2.35060715 C26.2481096,2.13750918 26.3671926,1.8625605 26.3671926,1.53264759 C26.3671926,1.20413748 26.2481096,0.929188802 26.0133568,0.715708243" id="Fill-15" fill="#FFFFFF"></path>
                    <path d="M25.9928649,4.64853281 L24.5036951,4.64853281 C24.4393498,4.64853281 24.3871404,4.70120156 24.3871404,4.76611291 L24.3871404,13.7161005 C24.3871404,13.7810118 24.4393498,13.8336806 24.5036951,13.8336806 L25.9928649,13.8336806 C26.0572102,13.8336806 26.1094196,13.7810118 26.1094196,13.7161005 L26.1094196,4.76611291 C26.1094196,4.70120156 26.0572102,4.64853281 25.9928649,4.64853281" id="Fill-17" fill="#FFFFFF"></path>
                    <path d="M37.2056689,5.49644852 C36.6141726,4.78573935 35.7249689,4.42534743 34.5624557,4.42534743 C33.9093953,4.42534743 33.2808594,4.59559627 32.6944198,4.93112037 C32.3342632,5.13669425 32.0304877,5.38524479 31.7882764,5.67281866 C31.7878972,5.66733499 31.7877708,5.66185132 31.7873915,5.65624012 C31.7746236,5.36382022 31.7556613,5.09588554 31.7310104,4.85945008 L31.7201387,4.75385754 C31.7139443,4.69417481 31.663884,4.64852006 31.604216,4.64852006 L30.1723123,4.64852006 C30.1396972,4.64852006 30.1087255,4.662293 30.0866028,4.68652317 C30.0646066,4.71062582 30.0534821,4.7428902 30.0562632,4.7756647 L30.0665028,4.90357449 C30.0909009,5.19816236 30.1092311,5.53253872 30.1208613,5.89764914 C30.1328708,6.26658538 30.1393179,6.56818725 30.1393179,6.80245474 L30.1393179,13.7160877 C30.1393179,13.7809991 30.1915274,13.8336678 30.2557462,13.8336678 L31.7450425,13.8336678 C31.8093877,13.8336678 31.8617236,13.7809991 31.8617236,13.7160877 L31.8617236,9.12982644 C31.8617236,8.57521058 31.9317575,8.09047963 32.0700557,7.68966159 C32.2070896,7.2919042 32.3903915,6.96173624 32.6151575,6.70757449 C32.836384,6.45558072 33.0913632,6.26594774 33.372384,6.14377667 C33.6560594,6.02045785 33.9508594,5.95796952 34.248567,5.95796952 C34.6653575,5.95796952 35.0127462,6.02504883 35.2811255,6.15729456 C35.543816,6.28711726 35.7554349,6.4705014 35.9102934,6.70170824 C36.0703349,6.94120435 36.1857519,7.23489953 36.2535104,7.57450451 C36.3234179,7.93183577 36.3591934,8.33609705 36.3591934,8.77581089 L36.3591934,13.7160877 C36.3591934,13.7809991 36.4114028,13.8336678 36.4758745,13.8336678 L37.9649179,13.8336678 C38.0292632,13.8336678 38.0814726,13.7809991 38.0814726,13.7160877 L38.0814726,8.25422457 C38.0814726,7.12305816 37.7867991,6.19529767 37.2056689,5.49644852" id="Fill-19" fill="#FFFFFF"></path>
                    <path d="M43.2158091,8.33576547 C43.2561355,8.082879 43.3322374,7.83624137 43.4425977,7.60108118 C43.5894921,7.28761928 43.7906185,7.00336112 44.0402883,6.75659596 C44.289326,6.51097854 44.5824826,6.31407652 44.9110355,6.17137356 C45.23706,6.0295633 45.5970902,5.957893 45.9810128,5.957893 C46.8068826,5.957893 47.4474279,6.20440311 47.8849506,6.69040933 C48.2816411,7.1316535 48.5184166,7.68473904 48.5897147,8.33576547 L43.2158091,8.33576547 Z M50.0682657,7.2281916 C49.8807921,6.6799521 49.6016675,6.19279813 49.2383506,5.77999253 C48.8730109,5.36565661 48.4112166,5.03281058 47.8654826,4.7897437 C47.3200015,4.54807963 46.6860298,4.42527092 45.9810128,4.42527092 C45.3373072,4.42527092 44.7288713,4.54782457 44.1723921,4.78936112 C43.6180619,5.02974992 43.1271921,5.36999253 42.7133091,5.80052442 C42.3003109,6.22952597 41.9732751,6.74397076 41.7410506,7.32919316 C41.5093317,7.91288523 41.3916392,8.55626003 41.3916392,9.24159129 C41.3916392,9.92743266 41.5123657,10.5714451 41.7509109,11.1557748 C41.9886977,11.7390843 42.3185147,12.253019 42.7308808,12.6822756 C43.1455223,13.1134451 43.6470109,13.4539428 44.2214411,13.6952243 C44.7954921,13.9356131 45.4247864,14.0575291 46.0920053,14.0575291 C46.8357053,14.0575291 47.5421128,13.9062818 48.1913808,13.6079956 C48.8435562,13.3085617 49.4470619,12.8094202 49.9849581,12.1245991 L50.0577732,12.0318868 C50.0769883,12.0074016 50.0858374,11.9761574 50.0821713,11.9451683 C50.0785053,11.9139241 50.0627034,11.8857406 50.0383053,11.866484 L48.9025921,10.9674171 C48.8765506,10.9466302 48.8434298,10.938596 48.8106883,10.9442072 C48.7779468,10.9496908 48.749377,10.96933 48.7319317,10.997386 L48.6627826,11.1085897 C48.4357411,11.4745928 48.0968223,11.8037406 47.65576,12.0867235 C47.2222826,12.3649879 46.696143,12.5061605 46.0920053,12.5061605 C45.6833053,12.5061605 45.2986242,12.4284964 44.9487072,12.2749537 C44.596894,12.1203907 44.2857864,11.9081854 44.0241072,11.6448417 C43.7635657,11.381498 43.556877,11.0681636 43.409477,10.7145306 C43.2917845,10.4306551 43.2163147,10.1277779 43.1847109,9.81240311 L50.2022657,9.81240311 C50.2616808,9.81240311 50.3114883,9.767386 50.3180619,9.70757574 L50.3296921,9.6019832 C50.3429657,9.47700653 50.3490336,9.36593033 50.3490336,9.25995521 L50.3490336,8.98067061 C50.3490336,8.3630563 50.2546015,7.77324292 50.0682657,7.2281916 Z" id="Fill-21" fill="#FFFFFF"></path>
                    <path d="M62.3575826,12.9291173 L54.9621732,12.9291173 L54.9621732,7.24803484 L61.6375223,7.24803484 C61.7018675,7.24803484 61.7542034,7.1953661 61.7542034,7.13045474 L61.7542034,6.40010638 C61.7542034,6.33519502 61.7018675,6.28252628 61.6375223,6.28252628 L54.9621732,6.28252628 L54.9621732,1.08528212 L62.0618977,1.08528212 C62.126243,1.08528212 62.1784525,1.03261337 62.1784525,0.967702022 L62.1784525,0.236716019 C62.1784525,0.171804666 62.126243,0.119263453 62.0618977,0.119263453 L54.0842204,0.119263453 C54.0198751,0.119263453 53.9676657,0.171804666 53.9676657,0.236716019 L53.9676657,13.7773008 C53.9676657,13.8422121 54.0198751,13.8948809 54.0842204,13.8948809 L62.3575826,13.8948809 C62.4219279,13.8948809 62.4741374,13.8422121 62.4741374,13.7773008 L62.4741374,13.0466974 C62.4741374,12.981786 62.4219279,12.9291173 62.3575826,12.9291173" id="Fill-23" fill="#FFFFFF"></path>
                    <path d="M66.5839679,0.117949922 L65.8226962,0.117949922 C65.7583509,0.117949922 65.7061415,0.170618663 65.7061415,0.235530016 L65.7061415,13.77739 C65.7061415,13.8423014 65.7583509,13.8949701 65.8226962,13.8949701 L66.5839679,13.8949701 C66.6483132,13.8949701 66.7005226,13.8423014 66.7005226,13.77739 L66.7005226,0.235530016 C66.7005226,0.170618663 66.6483132,0.117949922 66.5839679,0.117949922" id="Fill-25" fill="#FFFFFF"></path>
                    <g id="Group-29" transform="translate(70.033962, 4.463453)">
                        <mask id="mask-2" fill="white">
                            <use xlink:href="#path-1"></use>
                        </mask>
                        <g id="Clip-28"></g>
                        <path d="M1.06007906,4.10900342 C1.08776396,3.88672348 1.14427151,3.63830047 1.22922245,3.36947309 C1.35424698,2.975414 1.55335075,2.59142955 1.82122434,2.22784946 C2.08581113,1.87141089 2.43218849,1.56611073 2.85074887,1.32023826 C3.25793189,1.08137978 3.76106396,0.9601014 4.34611302,0.9601014 C4.83394887,0.9601014 5.28019415,1.04337667 5.67220736,1.2075042 C6.06143943,1.3701014 6.40023189,1.60322115 6.67910358,1.89984946 C6.95936585,2.20068616 7.1842583,2.56630669 7.3475866,2.98701897 C7.47994321,3.32840933 7.56375642,3.70537978 7.59750925,4.10900342 L1.06007906,4.10900342 Z M7.56653755,1.40134557 C7.56653755,1.40109051 7.5661583,1.40109051 7.5661583,1.40109051 C7.21257528,0.985606843 6.76544509,0.647149611 6.23753566,0.395155832 C5.70722434,0.141631726 5.07982623,0.0129567652 4.37303943,0.0129567652 C3.7672583,0.0129567652 3.19257528,0.13091944 2.66491868,0.36365661 C2.13599792,0.596648834 1.67028472,0.930387558 1.28079981,1.35543577 C0.893843208,1.77767838 0.584758302,2.28549176 0.362267736,2.86446532 C0.140409245,3.44267372 0.0277733962,4.07992722 0.0277733962,4.75913717 C0.0277733962,5.45951664 0.136111132,6.11934246 0.349499811,6.72114339 C0.564405472,7.32677014 0.87677717,7.85600809 1.27776585,8.2941916 C1.67989226,8.73237512 2.16330358,9.07873904 2.71384132,9.32282613 C3.26539038,9.56767838 3.88254887,9.69214495 4.54825075,9.69214495 C5.32987528,9.69214495 6.02970925,9.53745443 6.6281583,9.23215428 C7.22509038,8.92800187 7.75224132,8.47999876 8.19570547,7.90102519 L8.29772245,7.76775925 C8.33539415,7.71840622 8.32869415,7.64839378 8.28229981,7.60733002 L7.71760358,7.10882613 C7.6934583,7.08701897 7.66084321,7.07719938 7.62873377,7.08026003 C7.59624509,7.08370327 7.56679038,7.10079191 7.54732245,7.12680747 L7.43418094,7.28022271 C7.08085075,7.75092566 6.66127906,8.11386812 6.18659038,8.35846532 C5.71506208,8.60255241 5.16389226,8.72625381 4.54825075,8.72625381 C3.94689415,8.72625381 3.42088094,8.61173437 2.98474887,8.3860112 C2.54507717,8.15939533 2.17758849,7.85804852 1.89189038,7.49000498 C1.60164132,7.11647776 1.38218472,6.68862395 1.24022057,6.21830358 C1.12480358,5.83763484 1.05464321,5.4471465 1.03125642,5.05640311 L8.49101113,5.05640311 C8.55548283,5.05640311 8.60769226,5.0038619 8.60769226,4.93895054 L8.60769226,4.40537667 C8.60769226,3.86682924 8.52173,3.33146998 8.35271302,2.81434712 C8.18243189,2.29161306 7.91797151,1.81631913 7.56653755,1.40134557 Z" id="Fill-27" fill="#FFFFFF" mask="url(#mask-2)"></path>
                    </g>
                    <path d="M94.6413304,5.76379658 C94.3868568,5.3763689 94.0408587,5.06163173 93.6128172,4.82825692 C93.1836379,4.59488212 92.6550964,4.47640933 92.0424889,4.47640933 C91.2290077,4.47640933 90.492387,4.72534246 89.8520945,5.21632224 C89.4222832,5.54636267 89.0732511,5.9766395 88.8113191,6.49746065 C88.7809794,6.41201742 88.7481115,6.32848709 88.7130945,6.24737978 C88.5650625,5.90037823 88.3662115,5.59227247 88.1218511,5.33135179 C87.8733191,5.06749798 87.5630964,4.85618538 87.1994002,4.70302519 C86.8389908,4.55267061 86.4132247,4.47640933 85.9336058,4.47640933 C85.556004,4.47640933 85.1858606,4.53800498 84.8335417,4.65928336 C84.4795794,4.77992411 84.1462228,4.96177792 83.8420681,5.1997437 C83.5449926,5.43299098 83.2740851,5.71941711 83.036804,6.05162551 C83.0206228,6.07394277 83.0045681,6.09728025 82.9887662,6.1204902 L82.9878813,6.08401742 C82.9821926,5.87066439 82.9761247,5.6715944 82.9694247,5.4888479 C82.9636096,5.30355086 82.9542549,5.14095365 82.9411077,5.00590233 L82.9263172,4.84330513 C82.9207549,4.78260218 82.8704417,4.73643733 82.8102681,4.73643733 L82.0468474,4.73643733 C82.0141058,4.73643733 81.9827549,4.75046532 81.9606323,4.77495054 C81.9385096,4.79943577 81.9276379,4.83221026 81.9309247,4.86498476 L81.9495077,5.06188678 C81.9608851,5.18201742 81.9725153,5.33173437 81.9859153,5.51792411 C81.9969134,5.69582457 82.005636,5.88966594 82.012336,6.09447465 L82.0310455,6.69959129 C82.0374926,6.90235956 82.0405266,7.06431913 82.0405266,7.19324914 L82.0405266,13.7773518 C82.0405266,13.8422631 82.092736,13.8949319 82.1570813,13.8949319 L82.9181002,13.8949319 C82.9823191,13.8949319 83.0346549,13.8422631 83.0346549,13.7773518 L83.0346549,9.31593966 C83.0346549,8.69156641 83.1136643,8.13057418 83.2692813,7.64826625 C83.423887,7.16965661 83.6362643,6.76016672 83.9007247,6.43101897 C84.160887,6.10671726 84.4694662,5.85472348 84.8177398,5.681414 C85.1626002,5.51027247 85.538053,5.42355397 85.9336058,5.42355397 C86.3773228,5.42355397 86.7416511,5.51664883 87.0167304,5.69977792 C87.3025549,5.89030358 87.5293436,6.12941711 87.69027,6.41048709 C87.8565058,6.70239689 87.9721757,7.03281991 88.0341191,7.39231913 C88.0982115,7.77349798 88.1307002,8.13235956 88.1307002,8.45946687 L88.1307002,13.7773518 C88.1307002,13.8422631 88.1829096,13.8949319 88.2472549,13.8949319 L89.0091587,13.8949319 C89.073504,13.8949319 89.1257134,13.8422631 89.1257134,13.7773518 L89.1257134,9.31593966 C89.1257134,8.69220404 89.2073775,8.13210451 89.368304,7.65132691 C89.529736,7.17029425 89.7455266,6.75965661 90.0106191,6.43076392 C90.2701492,6.10646221 90.5784757,5.85446843 90.92637,5.681414 C91.2716096,5.51027247 91.646936,5.42355397 92.0424889,5.42355397 C92.4872172,5.42355397 92.8557172,5.51728647 93.1377492,5.7015633 C93.4307794,5.89298165 93.6671757,6.13400809 93.8402379,6.41813872 C94.0183568,6.70915583 94.1452775,7.0398339 94.2177134,7.40111851 C94.2936889,7.77872659 94.3322455,8.13452753 94.3322455,8.45946687 L94.3322455,13.7773518 C94.3322455,13.8422631 94.3844549,13.8949319 94.4489266,13.8949319 L95.2098191,13.8949319 C95.2741643,13.8949319 95.3263738,13.8422631 95.3263738,13.7773518 L95.3263738,8.4221014 C95.3263738,7.9572647 95.2745436,7.49026003 95.1718945,7.03396765 C95.0658323,6.56696299 94.8874606,6.13987434 94.6413304,5.76379658" id="Fill-30" fill="#FFFFFF"></path>
                    <g id="Group-34" transform="translate(98.477358, 4.463453)">
                        <mask id="mask-4" fill="white">
                            <use xlink:href="#path-3"></use>
                        </mask>
                        <g id="Clip-33"></g>
                        <path d="M1.13218623,4.10900342 C1.16012396,3.8863409 1.21713717,3.63830047 1.30221453,3.36921804 C1.42685981,2.97388367 1.62634283,2.58989922 1.89497491,2.2275944 C2.15640132,1.87230358 2.5021466,1.56700342 2.92247679,1.32023826 C3.32965981,1.08137978 3.83253906,0.9601014 4.4174617,0.9601014 C4.90592962,0.9601014 5.35242774,1.04337667 5.74456736,1.2075042 C6.13531642,1.37112162 6.47372962,1.60411384 6.7499466,1.89984946 C7.03071453,2.20068616 7.25598623,2.56630669 7.41956736,2.98727403 C7.55230321,3.32904697 7.63636925,3.70601742 7.66974283,4.10900342 L1.13218623,4.10900342 Z M7.6385183,1.40109051 L7.63826547,1.40109051 C7.28493528,0.985861897 6.83805792,0.647404666 6.31052774,0.395155832 C5.77958434,0.141631726 5.15218623,0.0129567652 4.44476736,0.0129567652 C3.83923906,0.0129567652 3.26430321,0.13091944 2.73614094,0.36365661 C2.2073466,0.596648834 1.7416334,0.930387558 1.35214849,1.35581835 C0.964054151,1.78022893 0.655348491,2.28791477 0.43399566,2.8648479 C0.21213717,3.44420404 0.0997541509,4.0817126 0.0997541509,4.75913717 C0.0997541509,5.46130202 0.208091887,6.12151042 0.421606981,6.72114339 C0.636133396,7.3256224 0.948505094,7.85473281 1.34987302,8.29380902 C1.75111453,8.73109984 2.23402019,9.07746376 2.78531642,9.32282613 C3.3371183,9.56767838 3.95452962,9.69214495 4.62035792,9.69214495 C5.40185604,9.69214495 6.10194283,9.53745443 6.70089755,9.23215428 C7.29757679,8.92800187 7.82447491,8.47999876 8.2674334,7.90128025 L8.37008245,7.76775925 C8.40800698,7.7187888 8.40130698,7.64839378 8.35491264,7.60733002 L7.78971075,7.10933624 C7.76505981,7.08765661 7.73522585,7.0787297 7.70071453,7.08089767 C7.66860509,7.0843409 7.63940321,7.10117449 7.61968245,7.12719005 L7.50527679,7.28022271 C7.15156736,7.75118072 6.73212208,8.11412317 6.25857113,8.35846532 C5.78679,8.60255241 5.23562019,8.72625381 4.62035792,8.72625381 C4.01799,8.72625381 3.49197679,8.61173437 3.05647679,8.3860112 C2.61655226,8.15914028 2.24893717,7.85779347 1.9636183,7.49000498 C1.67273717,7.11609518 1.45365981,6.6883689 1.31220132,6.21830358 C1.19691075,5.83610451 1.12675038,5.44599876 1.10323717,5.05640311 L8.56337113,5.05640311 C8.62784283,5.05640311 8.67992585,5.0038619 8.67992585,4.93895054 L8.67992585,4.40537667 C8.67992585,3.86708429 8.59409,3.33185257 8.42482019,2.81396454 C8.25226358,2.28816983 7.98755038,1.81262084 7.6385183,1.40109051 Z" id="Fill-32" fill="#FFFFFF" mask="url(#mask-4)"></path>
                    </g>
                    <path d="M117.294448,5.76102924 C117.035802,5.37551446 116.683736,5.0612874 116.248236,4.82740249 C115.813748,4.59466532 115.270415,4.47644759 114.633536,4.47644759 C114.234697,4.47644759 113.843948,4.5374056 113.473046,4.65766376 C113.10088,4.77830451 112.750078,4.95875552 112.429236,5.19391571 C112.111049,5.42933095 111.823582,5.71575708 111.57467,6.04554246 C111.550904,6.07704168 111.527644,6.10917854 111.504763,6.14195303 L111.485168,5.48850358 C111.478342,5.2983605 111.468734,5.13538072 111.45584,5.00377263 L111.439785,4.84232317 C111.433844,4.7820028 111.383657,4.73647558 111.323989,4.73647558 L110.560695,4.73647558 C110.5277,4.73647558 110.496476,4.75050358 110.474227,4.77537138 C110.452104,4.79985661 110.441485,4.83288616 110.444772,4.86591571 L110.464872,5.06320031 C110.476629,5.18320342 110.488259,5.33661866 110.501027,5.51847247 C110.511898,5.68782862 110.520748,5.87618631 110.5277,6.09425785 L110.545904,6.69924697 C110.551972,6.89589393 110.555006,7.06218942 110.555006,7.1932874 L110.555006,13.77739 C110.555006,13.8423014 110.607215,13.8949701 110.671561,13.8949701 L111.433212,13.8949701 C111.497557,13.8949701 111.549766,13.8423014 111.549766,13.77739 L111.549766,9.31597792 C111.549766,8.69492037 111.634465,8.13584106 111.801459,7.65404323 C111.966304,7.17670886 112.190565,6.76670886 112.468551,6.43539316 C112.73908,6.11109145 113.065104,5.85871509 113.437523,5.68476796 C113.809183,5.51145848 114.21131,5.42359222 114.633536,5.42359222 C115.1038,5.42359222 115.492021,5.51796236 115.78758,5.70376952 C116.093378,5.89735583 116.338497,6.13889238 116.516868,6.42187527 C116.698274,6.70995925 116.824183,7.03795925 116.891436,7.39631073 C116.961091,7.77481151 116.99674,8.13239782 116.99674,8.45950513 L116.99674,13.77739 C116.99674,13.8423014 117.048949,13.8949701 117.113168,13.8949701 L117.874946,13.8949701 C117.939291,13.8949701 117.9915,13.8423014 117.9915,13.77739 L117.9915,8.42213966 C117.9915,7.95819565 117.939544,7.49119098 117.836642,7.03464355 C117.730706,6.56636361 117.548289,6.13799969 117.294448,5.76102924" id="Fill-35" fill="#FFFFFF"></path>
                    <path d="M125.680054,12.951154 C125.650093,12.9343204 125.613054,12.9318974 125.580565,12.94414 L125.378301,13.023717 C125.131918,13.1214028 124.851403,13.1707558 124.544214,13.1707558 C124.15258,13.1707558 123.839576,13.0678414 123.613799,12.8644355 C123.397629,12.670339 123.288154,12.3221897 123.288154,11.8294246 L123.288154,5.68388802 L125.663114,5.68388802 C125.727459,5.68388802 125.779669,5.63121928 125.779669,5.56630793 L125.779669,4.8539409 C125.779669,4.78902955 125.727459,4.73636081 125.663114,4.73636081 L123.288154,4.73636081 L123.288154,2.11389114 C123.288154,2.04897978 123.235944,1.99631104 123.171473,1.99631104 L123.017878,1.99631104 C122.987286,1.99631104 122.957831,2.00855365 122.936341,2.02997823 L122.328284,2.63356454 C122.305908,2.65562675 122.293393,2.68597823 122.293393,2.71747745 L122.293393,4.73636081 L120.582618,4.73636081 C120.518146,4.73636081 120.465937,4.78902955 120.465937,4.8539409 L120.465937,5.56630793 C120.465937,5.63121928 120.518146,5.68388802 120.582618,5.68388802 L122.312482,5.68388802 L122.312482,11.8294246 C122.312482,12.4642551 122.475178,13.0035677 122.796146,13.4321866 C123.136076,13.8875863 123.693061,14.1184106 124.451552,14.1184106 C124.654448,14.1184106 124.865435,14.0976236 125.078444,14.0571975 C125.298027,14.0158787 125.491569,13.9598942 125.65338,13.890902 L125.785105,13.8364479 C125.835797,13.815661 125.865252,13.761717 125.855644,13.7071353 L125.737825,13.0332815 C125.731631,12.9985941 125.710393,12.9686252 125.680054,12.951154" id="Fill-37" fill="#FFFFFF"></path>
                    <path d="M133.634458,10.2533157 C133.634458,10.2533157 133.634458,10.2530607 133.634079,10.2530607 C133.471762,9.95477449 133.250156,9.70239813 132.975077,9.50281804 C132.715294,9.3147154 132.412656,9.15517885 132.075381,9.0284168 C131.748471,8.90599067 131.411828,8.79937792 131.072403,8.71112908 C130.722739,8.62581337 130.400002,8.53667185 130.113292,8.446 C129.846303,8.36234215 129.615975,8.25802488 129.428628,8.13610886 C129.262645,8.02732815 129.132185,7.8832224 129.040154,7.70621462 C128.945975,7.52767652 128.898317,7.27376983 128.898317,6.95163608 C128.898317,6.67298911 128.955709,6.4362986 129.068724,6.24857854 C129.186669,6.05129393 129.336345,5.89213997 129.513326,5.77481493 C129.699156,5.65226128 129.907109,5.56260964 130.131117,5.50841058 C130.365237,5.45204355 130.590635,5.42360498 130.800737,5.42360498 C131.256969,5.42360498 131.647339,5.5038196 131.961228,5.66182582 C132.276381,5.82072473 132.564607,6.07118818 132.819334,6.40658476 L132.914777,6.53054121 C132.950552,6.57747123 133.014898,6.58907621 133.064958,6.56051011 L133.718145,6.1799689 C133.746462,6.16339036 133.766815,6.13558942 133.773768,6.10332504 C133.78072,6.07118818 133.77402,6.037521 133.755564,6.01061275 L133.644066,5.84980093 C133.010094,4.93849145 132.053132,4.47646034 130.800737,4.47646034 C130.453475,4.47646034 130.10596,4.52721617 129.766788,4.62770762 C129.423445,4.72998445 129.110947,4.88276205 128.838269,5.08183204 C128.559018,5.28511042 128.331345,5.54666874 128.162581,5.85936547 C127.991035,6.17346501 127.904315,6.54711975 127.904315,6.96936236 C127.904315,7.38497356 127.973211,7.74102955 128.108475,8.02771073 C128.242475,8.31400933 128.430328,8.55835148 128.667356,8.75436081 C128.894777,8.94208087 129.160881,9.09575117 129.458462,9.21129082 C129.736196,9.31968896 130.037949,9.42005288 130.356894,9.50944946 C130.658647,9.5897916 130.964318,9.67395956 131.265566,9.76029549 C131.567824,9.84599378 131.848339,9.95936547 132.099526,10.0974774 C132.33036,10.2248771 132.524028,10.3962737 132.675726,10.6075863 C132.8163,10.8023204 132.887724,11.0693624 132.887724,11.4010607 C132.887724,11.6842986 132.828435,11.93693 132.712134,12.1519409 C132.590143,12.3751135 132.43086,12.5628336 132.23833,12.7098725 C132.03733,12.8629051 131.813069,12.9786998 131.571869,13.0543235 C131.326751,13.1314774 131.079735,13.1707558 130.83803,13.1707558 C129.786762,13.1707558 128.973028,12.7741462 128.41933,11.9924044 L128.319462,11.8514868 C128.283054,11.7997107 128.212894,11.7865754 128.160052,11.8217729 L127.532275,12.2431229 C127.506234,12.2609767 127.48803,12.2885226 127.482341,12.3197667 C127.476779,12.3512659 127.483858,12.3834028 127.502062,12.4094184 L127.60863,12.5597729 C127.967649,13.0711571 128.431592,13.4638134 128.987313,13.7271571 C129.534943,13.9868025 130.151469,14.1184106 130.819194,14.1184106 C131.231434,14.1184106 131.623068,14.0569425 131.983351,13.9356641 C132.347932,13.8128554 132.674588,13.6321493 132.954471,13.3985194 C133.237641,13.1615739 133.465315,12.8687714 133.630792,12.5282737 C133.797407,12.1849705 133.881726,11.7933344 133.881726,11.3643328 C133.881726,10.9301026 133.798671,10.5561928 133.634458,10.2533157" id="Fill-39" fill="#FFFFFF"></path>
                </g>
            </g>
        </g>
    </g>
</svg>