<svg width="134px" height="44px" viewBox="0 0 134 44" version="1.1" xmlns="http://www.w3.org/2000/svg" xmlns:xlink="http://www.w3.org/1999/xlink">
    <defs>
        <polygon id="path-1" points="2.144e-05 0 134 0 134 43.9956107 2.144e-05 43.9956107"></polygon>
    </defs>
    <g id="Desktop" stroke="none" stroke-width="1" fill="none" fill-rule="evenodd">
        <g id="Desktop-HD-Copy-52" transform="translate(-759.000000, -3828.000000)">
            <g id="Group-3" transform="translate(759.000000, 3828.000000)">
                <mask id="mask-2" fill="white">
                    <use xlink:href="#path-1"></use>
                </mask>
                <g id="Clip-2"></g>
                <path d="M82.723903,5.62777129 L96.720471,5.62777129 L96.720471,-1.13686838e-13 L76.2514886,-1.13686838e-13 L76.2514886,31.9023017 L96.9334238,31.9023017 L96.9334238,26.2745304 L82.7257254,26.2745304 L82.7257254,17.9336934 L96.9334238,17.9336934 L96.9334238,12.5094355 L82.7257254,12.5094355 L82.7257254,5.62777129 L82.723903,5.62777129 Z M133.779725,13.8164282 C133.548441,12.6102287 133.096861,11.5946959 132.428684,10.7679562 C131.602708,9.75236983 130.677518,9.04114355 129.660619,8.63417032 C128.67722,8.23618978 127.626767,8.0296253 126.565755,8.02555718 C124.996293,8.02555718 123.573696,8.35186375 122.294264,9.00447689 C121.088264,9.6570365 120.076832,10.6799562 119.265489,12.073129 C118.835509,10.9645109 118.129865,9.98350365 117.215128,9.22260341 C116.095424,8.42701703 114.626891,8.02737713 112.809637,8.02737713 C110.893276,8.02737713 109.314649,8.49114355 108.110471,9.42054988 C107.423909,9.9430365 106.746619,10.8211095 105.911424,12.0530024 L105.911424,8.5516837 L99.8538734,8.5516837 L99.8538734,32.3184282 L106.120678,32.3184282 L106.120678,17.9905401 C106.120678,16.7000341 106.329879,15.7284477 106.665844,15.0758345 C107.271577,13.9301217 108.483098,13.3563552 110.258116,13.3563552 C111.785341,13.3563552 112.850051,13.9301217 113.373133,15.0758345 C113.663217,15.713781 113.850441,16.7367007 113.850441,18.1427202 L113.850441,32.3184282 L120.115424,32.3184282 L120.115424,18.1427202 C120.115424,17.0849538 120.247548,16.1775474 120.581637,15.4241411 C121.238826,14.0015815 122.406234,13.2921752 124.120684,13.2921752 C125.602027,13.2921752 126.635489,13.8421217 127.186175,14.947528 C127.479903,15.5268078 127.637701,16.2674209 127.637701,17.1656204 L127.637701,32.3203017 L133.955909,32.3203017 L134.000021,17.3416204 C134.000021,15.8054209 133.926536,14.6102482 133.779725,13.8146083 C133.779725,13.8146083 133.926536,14.6120681 133.779725,13.8146083 L133.779725,13.8164282 Z M55.459459,17.7210803 C55.6852758,16.2637275 56.2377846,14.9933479 57.1152166,14.091455 C57.9926486,13.1858686 59.2261454,12.7532555 60.8231574,12.7532555 C62.2916366,12.7532555 63.5160214,13.1510219 64.5072462,14.003455 C65.498471,14.8540146 66.0491574,16.0529343 66.1648262,17.7210803 L55.459459,17.7210803 Z M70.5152166,12.2765888 C69.4322286,10.6817762 68.0665006,9.50854988 66.4089206,8.76981022 C64.7513406,8.02919708 62.8882046,7.65889051 60.821335,7.65889051 C57.3391574,7.65889051 54.5068262,8.75514355 52.3224118,10.9457762 C50.1416958,13.1400487 49.0494886,16.2911873 49.0494886,20.3992993 C49.0494886,24.7805109 50.2610094,27.9482433 52.6785302,29.8950024 C55.096051,31.8381752 57.884323,32.809708 61.0489206,32.809708 C64.8779974,32.809708 67.8590686,31.6365353 69.9883286,29.3303893 C71.3540566,27.8785499 72.1232166,26.4798637 72.2902342,25.0225109 L65.9482286,25.0225109 C65.6730462,25.6739465 65.2327222,26.2425742 64.670619,26.6723504 C63.7821454,27.4001168 62.6330686,27.7722433 61.2196366,27.7722433 C59.883335,27.7722433 58.7415478,27.4844234 57.7943822,26.8886569 C56.2341398,25.9317372 55.4044118,24.1865645 55.3089502,21.8933187 L72.6151574,21.8933187 C72.6445302,19.8090462 72.5784414,18.2746667 72.4095478,17.1821071 C72.1195182,15.3251679 71.4881102,13.6881752 70.5188614,12.2765888 C70.5188614,12.2765888 71.4881102,13.6881752 70.5188614,12.2765888 L70.5152166,12.2765888 Z M6.47602704,5.62777129 L20.2615182,5.62777129 L20.2615182,-1.13686838e-13 L2.144e-05,-1.13686838e-13 L2.144e-05,31.9023017 L20.4726486,31.9023017 L20.4726486,26.2745304 L6.47602704,26.2745304 L6.47602704,17.9336934 L20.4726486,17.9336934 L20.4726486,12.5094355 L6.47602704,12.5094355 L6.47602704,5.62777129 Z M42.9570982,7.71761071 L36.5140566,25.2057908 L29.7847374,7.71761071 L22.8754294,7.71761071 L33.1457254,32.4467883 L28.514471,43.9956107 L35.2585302,43.9956107 L39.9485302,31.8747883 L49.5616366,7.71391727 L42.9570982,7.71391727 L42.9570982,7.71761071 Z" id="Fill-1" fill="#FFFFFF" mask="url(#mask-2)"></path>
            </g>
        </g>
    </g>
</svg>