
<svg width="134px" height="43px" viewBox="0 0 134 43" version="1.1" xmlns="http://www.w3.org/2000/svg" xmlns:xlink="http://www.w3.org/1999/xlink">
    <defs>
        <polygon id="path-1" points="0.000209375 0.392768293 32.0487172 0.392768293 32.0487172 33.3415183 0.000209375 33.3415183"></polygon>
        <polygon id="path-3" points="0 42.6074939 133.56607 42.6074939 133.56607 0.524652439 0 0.524652439"></polygon>
    </defs>
    <g id="Desktop" stroke="none" stroke-width="1" fill="none" fill-rule="evenodd">
        <g id="Desktop-HD-Copy-52" transform="translate(-331.000000, -3829.000000)">
            <g id="Group-13" transform="translate(331.000000, 3829.000000)">
                <g id="Group-3" transform="translate(0.000000, 0.131884)">
                    <mask id="mask-2" fill="white">
                        <use xlink:href="#path-1"></use>
                    </mask>
                    <g id="Clip-2"></g>
                    <path d="M16.6821625,15.3842988 L16.6821625,19.8872378 L27.4257172,19.8872378 C27.0969984,22.4132256 26.2563578,24.2622256 24.9776,25.5616646 C23.4062406,27.1358841 20.9576,28.8564085 16.6821625,28.8564085 C10.0674828,28.8564085 4.89696719,23.5118232 4.89696719,16.8851037 C4.89696719,10.2589085 10.0674828,4.91379878 16.6821625,4.91379878 C20.2452016,4.91379878 22.8576781,6.32335976 24.7766,8.13565244 L27.9371156,4.96885976 C25.2696781,2.36945732 21.6883188,0.392506098 16.6821625,0.392506098 C7.61936563,0.392506098 0.000209375,7.78798171 0.000209375,16.8672744 C0.000209375,25.9465671 7.61936563,33.3415183 16.6821625,33.3415183 C21.5789203,33.3415183 25.2696781,31.7305915 28.1564359,28.7284573 C31.1169984,25.7630305 32.0487172,21.5715793 32.0487172,18.2028963 C32.0487172,17.1598841 31.9754359,16.1897622 31.8110766,15.3842988 L16.6821625,15.3842988 Z" id="Fill-1" fill="#FFFFFF" mask="url(#mask-2)"></path>
                </g>
                <path d="M45.4783437,28.9337037 C42.2623437,28.9337037 39.4849844,26.2792402 39.4849844,22.4905207 C39.4849844,18.6645695 42.2623437,16.0468134 45.4783437,16.0468134 C48.6943437,16.0468134 51.4711797,18.6645695 51.4711797,22.4905207 C51.4711797,26.2792402 48.6943437,28.9337037 45.4783437,28.9337037 M45.4783437,11.8553622 C39.6127031,11.8553622 34.8258672,16.3215939 34.8258672,22.4905207 C34.8258672,28.6043866 39.6127031,33.1256793 45.4783437,33.1256793 C51.3434609,33.1256793 56.1308203,28.6222159 56.1308203,22.4905207 C56.1308203,16.3215939 51.3434609,11.8553622 45.4783437,11.8553622" id="Fill-4" fill="#FFFFFF"></path>
                <path d="M92.3449484,28.9337037 C89.1289484,28.9337037 86.6813547,26.1879963 86.6813547,22.4905207 C86.6813547,18.7379841 89.1289484,16.0468134 92.3449484,16.0468134 C95.5243078,16.0468134 98.0090656,18.7930451 98.0090656,22.5267037 C98.0273859,26.2425329 95.5243078,28.9337037 92.3449484,28.9337037 Z M97.6991906,14.2350451 L97.5343078,14.2350451 C96.4931906,12.9901427 94.4831906,11.8553622 91.9429484,11.8553622 C86.6441906,11.8553622 82.0217141,16.4862524 82.0217141,22.4905207 C82.0217141,28.4580817 86.6441906,33.1256793 91.9429484,33.1256793 C94.4831906,33.1256793 96.4931906,31.9903744 97.5343078,30.709289 L97.6991906,30.709289 L97.6991906,32.1922646 C97.6991906,36.2557646 95.5243078,38.4340817 92.03455,38.4340817 C89.1844328,38.4340817 87.41155,36.3837159 86.6813547,34.6448378 L82.6247141,36.3291793 C83.7940734,39.1483012 86.8818312,42.6071793 92.03455,42.6071793 C97.4981906,42.6071793 102.120667,39.38585 102.120667,31.5331061 L102.120667,12.4043988 L97.6991906,12.4043988 L97.6991906,14.2350451 Z" id="Fill-6" fill="#FFFFFF"></path>
                <path d="M69.2313617,28.9337037 C66.0153617,28.9337037 63.2385258,26.2792402 63.2385258,22.4905207 C63.2385258,18.6645695 66.0153617,16.0468134 69.2313617,16.0468134 C72.4473617,16.0468134 75.2247211,18.6645695 75.2247211,22.4905207 C75.2247211,26.2792402 72.4473617,28.9337037 69.2313617,28.9337037 M69.2313617,11.8553622 C63.3662445,11.8553622 58.5788852,16.3215939 58.5788852,22.4905207 C58.5788852,28.6043866 63.3662445,33.1256793 69.2313617,33.1256793 C75.0964789,33.1256793 79.8838383,28.6222159 79.8838383,22.4905207 C79.8838383,16.3215939 75.0964789,11.8553622 69.2313617,11.8553622" id="Fill-8" fill="#FFFFFF"></path>
                <mask id="mask-4" fill="white">
                    <use xlink:href="#path-3"></use>
                </mask>
                <g id="Clip-11"></g>
                <polygon id="Fill-10" fill="#FFFFFF" mask="url(#mask-4)" points="105.77468 33.1254695 110.361039 33.1254695 110.361039 0.963567073 105.77468 0.963567073"></polygon>
                <path d="M124.192823,15.8457098 C126.075104,15.8457098 127.68258,16.8158317 128.212823,18.1886854 L118.620307,22.1604171 C118.620307,17.6941854 121.781346,15.8457098 124.192823,15.8457098 M124.521541,28.9334415 C122.146182,28.9334415 120.465424,27.853722 119.368823,25.7121122 L133.566018,19.8363195 L133.09126,18.6281244 C132.213979,16.2484415 129.509901,11.8551 124.00962,11.8551 C118.547026,11.8551 113.996784,16.1566732 113.996784,22.4902585 C113.996784,28.4578195 118.491541,33.1259415 124.521541,33.1259415 C129.381659,33.1259415 132.195659,30.1416366 133.365018,28.4211122 L129.747018,26.0052463 C128.541541,27.7619537 126.896901,28.9334415 124.521541,28.9334415" id="Fill-12" fill="#FFFFFF" mask="url(#mask-4)"></path>
            </g>
        </g>
    </g>
</svg>