<svg width="238px" height="50px" viewBox="0 0 238 50" version="1.1" xmlns="http://www.w3.org/2000/svg" xmlns:xlink="http://www.w3.org/1999/xlink">
    <defs>
        <polygon id="path-1" points="0 50 237.257706 50 237.257706 0 0 0"></polygon>
    </defs>
    <g id="Desktop" stroke="none" stroke-width="1" fill="none" fill-rule="evenodd">
        <g id="hover-logo-and-anchor-points" transform="translate(-89.000000, -40.000000)">
            <g id="Group-18" transform="translate(89.000000, 40.000000)">
                <path d="M0,5.61 L7.46870629,5.61 L7.46870629,0 L0,0 L0,5.61 Z M0,38.8066667 L7.46870629,38.8066667 L7.46870629,11.0925 L0,11.0925 L0,38.8066667 Z" id="Fill-1" fill="#FFFFFF"></path>
                <g id="Group-17">
                    <path d="M20.233079,11.0920833 L20.233079,15.0620833 C21.1534566,13.6445833 22.2885336,12.5429167 23.6349811,11.7579167 C24.9822608,10.9720833 26.4918133,10.5795833 28.1628063,10.5795833 C30.9597224,10.5795833 33.1424986,11.45875 34.7103028,13.2179167 C36.2797713,14.97625 37.0645056,17.7345833 37.0645056,21.49125 L37.0645056,38.80625 L29.5700021,38.80625 L29.5700021,21.4770833 C29.5700021,19.61125 29.1946944,18.2895833 28.444079,17.51125 C27.6934636,16.7329167 26.560051,16.3429167 25.0421769,16.3429167 C24.0535615,16.3429167 23.1656385,16.5429167 22.3817364,16.9454167 C21.5978343,17.34875 20.9412538,17.9179167 20.4128273,18.65375 L20.4128273,38.80625 L12.9432888,38.80625 L12.9432888,11.0920833 L20.233079,11.0920833 Z" id="Fill-2" fill="#FFFFFF"></path>
                    <path d="M58.2706385,31.1734167 C58.2706385,30.35425 57.8736944,29.6450833 57.0806385,29.0475833 C56.2884147,28.44925 54.8179741,27.9209167 52.6693168,27.45925 C49.3947364,26.7934167 46.9265266,25.8075833 45.2638552,24.5009167 C43.6011839,23.19425 42.7698483,21.41425 42.7698483,19.1600833 C42.7698483,16.76925 43.7717783,14.74175 45.7748063,13.07675 C47.7794986,11.41175 50.4607434,10.57925 53.8193727,10.57925 C57.3502608,10.57925 60.1596594,11.4075833 62.2475685,13.06425 C64.337142,14.7200833 65.339072,16.8125833 65.2541909,19.33925 L65.2025965,19.4925833 L57.9893657,19.4925833 C57.9893657,18.3825833 57.6348622,17.4775833 56.9283517,16.7784167 C56.2201769,16.0784167 55.184128,15.7275833 53.8193727,15.7275833 C52.6085685,15.7275833 51.659065,16.02175 50.9683657,16.6109167 C50.2776664,17.2000833 49.9314846,17.93925 49.9314846,18.8275833 C49.9314846,19.6809167 50.2943098,20.3809167 51.019128,20.9275833 C51.7439462,21.4734167 53.2143867,21.9600833 55.4312818,22.3875833 C58.8423378,23.0700833 61.3737923,24.0734167 63.028142,25.39675 C64.6824916,26.7209167 65.5088343,28.5434167 65.5088343,30.8659167 C65.5088343,33.35925 64.4436594,35.3950833 62.3116455,36.9750833 C60.1804636,38.55425 57.3669042,39.34425 53.8709671,39.34425 C50.1877923,39.34425 47.2760371,38.4100833 45.1365336,36.53925 C42.9961979,34.66925 41.9767923,32.5400833 42.079149,30.14925 L42.1299112,29.9950833 L48.9603448,29.9950833 C49.011107,31.4809167 49.497093,32.55675 50.4174706,33.2225833 C51.3386804,33.8884167 52.5411629,34.2209167 54.024086,34.2209167 C55.4063168,34.2209167 56.4581769,33.9484167 57.1829951,33.40175 C57.9078133,32.8559167 58.2706385,32.1125833 58.2706385,31.1734167" id="Fill-4" fill="#FFFFFF"></path>
                    <path d="M172.009424,31.1734167 C172.009424,30.35425 171.61248,29.6450833 170.819424,29.0475833 C170.0272,28.44925 168.556759,27.9209167 166.408102,27.45925 C163.133522,26.7934167 160.665312,25.8075833 159.002641,24.5009167 C157.339969,23.19425 156.508634,21.41425 156.508634,19.1600833 C156.508634,16.76925 157.510564,14.74175 159.513592,13.07675 C161.518284,11.41175 164.199529,10.57925 167.558158,10.57925 C171.089046,10.57925 173.898445,11.4075833 175.986354,13.06425 C178.075927,14.7200833 179.077025,16.8125833 178.992976,19.33925 L178.941382,19.4925833 L171.728151,19.4925833 C171.728151,18.3825833 171.373648,17.4775833 170.666305,16.7784167 C169.958962,16.0784167 168.922913,15.7275833 167.558158,15.7275833 C166.347354,15.7275833 165.39785,16.02175 164.707151,16.6109167 C164.016452,17.2000833 163.67027,17.93925 163.67027,18.8275833 C163.67027,19.6809167 164.033095,20.3809167 164.757913,20.9275833 C165.482731,21.4734167 166.953172,21.9600833 169.170067,22.3875833 C172.581123,23.0700833 175.112578,24.0734167 176.766927,25.39675 C178.421277,26.7209167 179.24762,28.5434167 179.24762,30.8659167 C179.24762,33.35925 178.182445,35.3950833 176.050431,36.9750833 C173.919249,38.55425 171.10569,39.34425 167.609752,39.34425 C163.926578,39.34425 161.014822,38.4100833 158.874487,36.53925 C156.734983,34.66925 155.715578,32.5400833 155.817934,30.14925 L155.868697,29.9950833 L162.69913,29.9950833 C162.749892,31.4809167 163.235878,32.55675 164.156256,33.2225833 C165.077466,33.8884167 166.279116,34.2209167 167.762871,34.2209167 C169.145102,34.2209167 170.196962,33.9484167 170.92178,33.40175 C171.646599,32.8559167 172.009424,32.1125833 172.009424,31.1734167" id="Fill-6" fill="#FFFFFF"></path>
                    <mask id="mask-2" fill="white">
                        <use xlink:href="#path-1"></use>
                    </mask>
                    <g id="Clip-9"></g>
                    <path d="M70.8016713,38.8058333 L78.2712098,38.8058333 L78.2712098,11.0916667 L70.8016713,11.0916667 L70.8016713,38.8058333 Z M70.8016713,5.60916667 L78.2712098,5.60916667 L78.2712098,0 L70.8016713,0 L70.8016713,5.60916667 Z" id="Fill-8" fill="#FFFFFF" mask="url(#mask-2)"></path>
                    <path d="M90.7275972,25.72175 C90.7275972,28.1625833 91.1370238,30.0800833 91.9558769,31.4809167 C92.7738979,32.8809167 94.1045343,33.58175 95.9461217,33.58175 C97.0886881,33.58175 98.0564993,33.3709167 98.8487231,32.94925 C99.641779,32.52925 100.277555,31.9150833 100.754387,31.1075833 L100.754387,18.99675 C100.277555,18.1559167 99.641779,17.5025833 98.8487231,17.0384167 C98.0564993,16.57425 97.1053315,16.3425833 95.9968839,16.3425833 C94.172772,16.3425833 92.8379748,17.1584167 91.9933245,18.7909167 C91.1495063,20.4225833 90.7275972,22.5525833 90.7275972,25.18175 L90.7275972,25.72175 Z M83.2580587,25.1800833 C83.2580587,20.8084167 84.2092266,17.28175 86.1107301,14.6009167 C88.0114014,11.9200833 90.6760028,10.57925 94.1045343,10.57925 C95.6556951,10.57925 97.0204503,10.92925 98.1971357,11.62925 C99.373821,12.3300833 100.379912,13.3284167 101.215408,14.62675 L101.215408,11.09175 L108.248891,11.09175 L108.248891,38.6784167 C108.248891,42.28175 107.068045,45.06925 104.706352,47.04175 C102.34466,49.0134167 99.0575972,50.0000833 94.8459958,50.0000833 C93.4479538,50.0000833 91.9633664,49.8075833 90.3955622,49.4234167 C88.8260937,49.03925 87.3772895,48.5150833 86.0466531,47.8484167 L87.4280517,42.2650833 C88.5706182,42.8109167 89.734821,43.2250833 90.9189958,43.50675 C92.1040028,43.7884167 93.3963594,43.92925 94.7952336,43.92925 C96.8415343,43.92925 98.3452615,43.5025833 99.3097441,42.6484167 C100.272562,41.7950833 100.754387,40.4625833 100.754387,38.6534167 L100.754387,36.1425833 C99.9355343,37.18425 98.9718839,37.9784167 97.8642685,38.52425 C96.755821,39.07175 95.4851007,39.34425 94.0529399,39.34425 C90.6593594,39.34425 88.0114014,38.0934167 86.1107301,35.59175 C84.2092266,33.0900833 83.2580587,29.79925 83.2580587,25.7175833 L83.2580587,25.1800833 Z" id="Fill-10" fill="#FFFFFF" mask="url(#mask-2)"></path>
                    <path d="M121.01318,11.0920833 L121.01318,15.0620833 C121.933558,13.6445833 123.068635,12.5429167 124.415083,11.7579167 C125.762362,10.9720833 127.271915,10.5795833 128.942076,10.5795833 C131.739824,10.5795833 133.9226,11.45875 135.490404,13.2179167 C137.059873,14.97625 137.844607,17.7345833 137.844607,21.49125 L137.844607,38.80625 L130.350103,38.80625 L130.350103,21.4770833 C130.350103,19.61125 129.974796,18.2895833 129.22418,17.51125 C128.473565,16.7329167 127.340152,16.3429167 125.822278,16.3429167 C124.832831,16.3429167 123.94574,16.5429167 123.161838,16.9454167 C122.377936,17.34875 121.721355,17.9179167 121.192929,18.65375 L121.192929,38.80625 L113.72339,38.80625 L113.72339,11.0920833 L121.01318,11.0920833 Z" id="Fill-11" fill="#FFFFFF" mask="url(#mask-2)"></path>
                    <path d="M143.33342,38.8058333 L150.802958,38.8058333 L150.802958,11.0916667 L143.33342,11.0916667 L143.33342,38.8058333 Z M143.33342,5.60916667 L150.802958,5.60916667 L150.802958,0 L143.33342,0 L143.33342,5.60916667 Z" id="Fill-12" fill="#FFFFFF" mask="url(#mask-2)"></path>
                    <path d="M172.009424,31.1734167 C172.009424,30.35425 171.61248,29.6450833 170.819424,29.0475833 C170.0272,28.44925 168.556759,27.9209167 166.408102,27.45925 C163.133522,26.7934167 160.665312,25.8075833 159.002641,24.5009167 C157.339969,23.19425 156.508634,21.41425 156.508634,19.1600833 C156.508634,16.76925 157.510564,14.74175 159.513592,13.07675 C161.518284,11.41175 164.199529,10.57925 167.558158,10.57925 C171.089046,10.57925 173.898445,11.4075833 175.986354,13.06425 C178.075927,14.7200833 179.077025,16.8125833 178.992976,19.33925 L178.941382,19.4925833 L171.728151,19.4925833 C171.728151,18.3825833 171.373648,17.4775833 170.666305,16.7784167 C169.958962,16.0784167 168.922913,15.7275833 167.558158,15.7275833 C166.347354,15.7275833 165.39785,16.02175 164.707151,16.6109167 C164.016452,17.2000833 163.67027,17.93925 163.67027,18.8275833 C163.67027,19.6809167 164.033095,20.3809167 164.757913,20.9275833 C165.482731,21.4734167 166.953172,21.9600833 169.170067,22.3875833 C172.581123,23.0700833 175.112578,24.0734167 176.766927,25.39675 C178.421277,26.7209167 179.24762,28.5434167 179.24762,30.8659167 C179.24762,33.35925 178.182445,35.3950833 176.050431,36.9750833 C173.919249,38.55425 171.10569,39.34425 167.609752,39.34425 C163.926578,39.34425 161.014822,38.4100833 158.874487,36.53925 C156.734983,34.66925 155.715578,32.5400833 155.817934,30.14925 L155.868697,29.9950833 L162.69913,29.9950833 C162.749892,31.4809167 163.235878,32.55675 164.156256,33.2225833 C165.077466,33.8884167 166.279116,34.2209167 167.762871,34.2209167 C169.145102,34.2209167 170.196962,33.9484167 170.92178,33.40175 C171.646599,32.8559167 172.009424,32.1125833 172.009424,31.1734167" id="Fill-13" fill="#FFFFFF" mask="url(#mask-2)"></path>
                    <polygon id="Fill-14" fill="#FFFFFF" mask="url(#mask-2)" points="192.696617 10.1390833 184.722785 39.7349167 195.922099 39.74075 203.91091 10.14575"></polygon>
                    <polygon id="Fill-15" fill="#FFFFFF" mask="url(#mask-2)" points="209.370015 10.1390833 201.396183 39.7349167 212.595497 39.74075 220.584308 10.14575"></polygon>
                    <polygon id="Fill-16" fill="#FFFFFF" mask="url(#mask-2)" points="226.044245 10.1390833 218.06958 39.7349167 229.268895 39.74075 237.258538 10.14575"></polygon>
                </g>
            </g>
        </g>
    </g>
</svg>