<svg width="134px" height="40px" viewBox="0 0 134 40" version="1.1" xmlns="http://www.w3.org/2000/svg" xmlns:xlink="http://www.w3.org/1999/xlink">
    <defs>
        <polygon id="path-1" points="0 39.7804878 133.787632 39.7804878 133.787632 0 0 0"></polygon>
    </defs>
    <g id="Desktop" stroke="none" stroke-width="1" fill="none" fill-rule="evenodd">
        <g id="Desktop-HD-Copy-52" transform="translate(-544.000000, -4048.000000)">
            <g id="Group-13" transform="translate(544.000000, 4048.000000)">
                <path d="M89.3301083,39.7804878 C88.1855451,38.3653659 87.0409819,36.9497561 85.5360217,35.0902439 C85.7135596,35.0356098 86.0749242,35.004878 86.3463105,34.8312195 C90.0939567,32.4336585 91.6385848,28.9 91.6177834,24.5190244 C91.5863394,18.1887805 91.6095596,11.857561 91.6095596,5.32341463 L97.4518628,5.32341463 L97.4518628,16.0385366 C97.4518628,18.4765854 97.3604332,20.9185366 97.4687942,23.3512195 C97.7759783,30.2019512 95.3122166,35.7 89.8138628,39.7804878 L89.3301083,39.7804878 Z" id="Fill-1" fill="#FFFFFF"></path>
                <path d="M74.5505372,26.5973659 L68.7551581,26.5973659 C68.7551581,24.7554146 68.7541906,16.8510244 68.7537069,13.1022439 C68.7537069,12.0032195 67.8694036,11.114439 66.7799884,11.114439 L63.7313675,11.114439 C63.7313675,11.114439 63.7536202,21.3798049 63.7536202,26.5973659 L57.992104,26.5973659 L57.992104,11.114439 L52.7007971,11.114439 L52.7007971,26.5724878 L47.0302267,26.5724878 L47.0302267,5.11785366 C49.5452664,5.11785366 52.0119307,5.11736585 54.4790787,5.11785366 C59.0703928,5.11931707 63.6617069,5.08712195 68.2520534,5.13443902 C71.4598296,5.16760976 74.31253,7.3115122 74.474104,10.4266341 L74.5505372,26.5973659 Z" id="Fill-3" fill="#FFFFFF"></path>
                <mask id="mask-2" fill="white">
                    <use xlink:href="#path-1"></use>
                </mask>
                <g id="Clip-6"></g>
                <polygon id="Fill-5" fill="#FFFFFF" mask="url(#mask-2)" points="80.3385632 26.6009756 85.7546787 26.6009756 85.7546787 5.20292683 80.3385632 5.20292683"></polygon>
                <polygon id="Fill-7" fill="#FFFFFF" mask="url(#mask-2)" points="103.091957 26.5268293 108.55161 26.5268293 108.55161 5.21560976 103.091957 5.21560976"></polygon>
                <polygon id="Fill-8" fill="#FFFFFF" mask="url(#mask-2)" points="128.327495 26.6063415 133.787632 26.6063415 133.787632 5.14292683 128.327495 5.14292683"></polygon>
                <polygon id="Fill-9" fill="#FFFFFF" mask="url(#mask-2)" points="123.83535 10.6487805 133.787632 10.6487805 133.787632 5.14292683 123.83535 5.14292683"></polygon>
                <polygon id="Fill-10" fill="#FFFFFF" mask="url(#mask-2)" points="123.83535 26.6063415 133.787632 26.6063415 133.787632 21.1004878 123.83535 21.1004878"></polygon>
                <path d="M29.025174,17.3707805 L29.025174,21.9756585 C29.025174,28.5512683 23.7425747,33.8780976 17.2215639,33.8780976 C12.3066181,33.8780976 8.09311625,30.8488293 6.32257473,26.5415122 C4.70683466,27.3659024 3.09593213,28.1951707 1.47535451,29.024439 C4.16019206,35.1024878 10.1974484,39.3415122 17.2215639,39.3415122 C26.7321776,39.3415122 34.4432245,31.5659024 34.4432245,21.9756585 L34.4432245,14.5902927 C32.6388202,15.517122 30.8344159,16.4390732 29.025174,17.3707805 Z M29.025174,4.87804878e-05 L29.025174,0.0488292683 C25.0487119,1.80492683 21.144813,3.522 17.2457516,5.24395122 C13.3273401,3.51712195 9.40892852,1.79029268 5.41795379,0.0244390244 L5.41795379,4.87804878e-05 L-9.67509025e-05,4.87804878e-05 L-9.67509025e-05,21.9756585 C-9.67509025e-05,22.7317561 0.0482787004,23.4780976 0.145029603,24.2049268 C1.90105848,23.3024878 3.65708736,22.4049268 5.41795379,21.5024878 L5.41795379,5.99029268 C7.71578773,7.00492683 10.0136217,8.01468293 12.3162931,9.03419512 C13.9513834,9.75614634 15.5913112,10.4780976 17.2409141,11.2049268 C18.8566542,10.4976098 20.4627191,9.78541463 22.0639466,9.07809756 C24.3908058,8.05370732 26.7079899,7.02931707 29.025174,6.00980488 L29.025174,11.8683415 C30.8247408,10.9463902 32.6291451,10.019561 34.4432245,9.09273171 L34.4432245,4.87804878e-05 L29.025174,4.87804878e-05 Z" id="Fill-11" fill="#FFFFFF" mask="url(#mask-2)"></path>
                <path d="M123.835399,10.6739024 L123.835399,5.14317073 C117.957781,5.14317073 113.192799,9.94756098 113.192799,15.874878 C113.192799,21.8017073 117.957781,26.6065854 123.835399,26.6065854 L123.835399,21.0753659 C120.987052,21.0753659 118.678092,18.7470732 118.678092,15.874878 C118.678092,13.0021951 120.987052,10.6739024 123.835399,10.6739024" id="Fill-12" fill="#FFFFFF" mask="url(#mask-2)"></path>
            </g>
        </g>
    </g>
</svg>