
<svg width="134px" height="85px" viewBox="0 0 134 85" version="1.1" xmlns="http://www.w3.org/2000/svg" xmlns:xlink="http://www.w3.org/1999/xlink">
    <defs>
        <polygon id="path-1" points="0.000148888889 0.130611607 123.294912 0.130611607 123.294912 84.6205357 0.000148888889 84.6205357"></polygon>
        <polygon id="path-3" points="0.189126582 0.0948660714 7.81651778 0.0948660714 7.81651778 31.5690759 0.189126582 31.5690759"></polygon>
    </defs>
    <g id="Desktop" stroke="none" stroke-width="1" fill="none" fill-rule="evenodd">
        <g id="Desktop-HD-Copy-52" transform="translate(-544.000000, -3808.000000)">
            <g id="Group-15" transform="translate(544.000000, 3808.000000)">
                <g id="Group-3" transform="translate(0.000000, 0.284598)">
                    <mask id="mask-2" fill="white">
                        <use xlink:href="#path-1"></use>
                    </mask>
                    <g id="Clip-2"></g>
                    <path d="M0.0176433333,0.136683036 C15.2899211,0.130611607 30.5562433,0.124540179 45.8285211,0.142754464 C51.0429822,5.78197321 56.2864767,11.3915938 61.5303433,17.0004554 C66.7265656,11.3490938 72.0057933,5.76983036 77.2142989,0.136683036 C92.5688378,0.130611607 107.929332,0.130611607 123.278288,0.136683036 C123.283871,11.7148973 123.272332,23.2870402 123.283871,34.8713259 C123.248882,35.3987813 123.395166,35.9858125 123.143171,36.4775982 C119.333477,42.8237589 116.029632,49.5000536 113.549143,56.4996518 C113.231638,57.2544063 112.937954,58.1233795 112.22031,58.584808 C111.608749,58.8489152 110.70946,58.7350759 110.380788,58.0759464 C109.94566,57.2426429 109.96911,56.2719732 109.845532,55.3608795 C109.445766,51.8311027 109.08136,48.2834911 108.511116,44.7715491 C108.17016,42.9793393 107.782304,41.0440714 106.47171,39.6958348 C105.243004,38.4728214 103.361793,38.3532902 101.762727,38.748692 C100.293193,39.0784464 98.9115044,39.9713259 98.1707822,41.3317054 C97.2067267,43.0157679 97.2182656,45.0595625 97.5651767,46.9231116 C98.1707822,50.1891607 99.2520878,53.3352991 100.357216,56.4579107 C102.544021,62.3430223 104.760232,68.2277545 106.952993,74.1071741 C107.499788,75.6109911 108.364088,77.1633795 109.874566,77.8403438 C111.173621,78.3973973 112.643527,78.3920848 114.01926,78.187933 C115.212604,78.0019955 116.241054,77.1929777 116.834749,76.1445179 C117.939877,74.2267054 118.369049,72.015567 119.021554,69.911817 C120.326566,65.6208348 121.579093,61.294183 123.260049,57.1352545 C123.29541,66.2924866 123.260049,75.4550313 123.27196,84.6122634 C113.689843,84.6183348 104.102143,84.6122634 94.5144433,84.6183348 C94.1265878,81.2145402 93.8440711,77.7803884 94.0205044,74.3587589 C94.0618211,71.0145402 94.1969378,67.6885357 94.1615767,64.3446964 C94.2617044,59.4962813 93.6441878,54.6903661 93.3739544,49.8540938 C93.06836,46.1023304 93.4681267,42.3266607 93.1390822,38.5752768 C95.8607711,36.8373304 98.7000822,35.3088482 101.439266,33.6012589 C103.27916,32.4385804 105.254543,31.437933 106.829788,29.8919955 C107.699671,29.0287143 108.375999,27.7104554 107.853027,26.4756786 C106.747899,24.1863705 103.837866,22.9459018 101.492493,23.953 C99.5703378,24.8515714 98.4298489,26.811125 96.6781711,27.9498973 C94.4913656,29.3284911 92.2866933,30.6827991 90.0410767,31.9710804 C88.3426267,31.0664375 86.3024767,30.7666607 84.4681656,31.3540714 C83.4691211,31.6834464 82.54601,32.378625 82.1462433,33.3914152 C81.6757544,34.5062813 82.0699378,35.7289152 81.8581433,36.8733795 C81.7226544,37.5807009 81.1821878,38.0838705 80.5940767,38.419317 C78.1132156,39.917442 75.6092767,41.3798973 73.1343711,42.8901652 C70.5891156,44.406125 68.1197933,46.1505223 65.2570322,46.9952098 C63.5168933,47.5165938 61.4771156,48.1157679 60.6362656,49.9258125 C59.8311489,51.6880446 60.7836656,53.7132455 62.1299933,54.888067 C63.2879767,56.0146964 65.0571489,56.2545179 66.5385933,55.7209911 C68.47266,55.073625 70.0657711,53.7075536 71.6704211,52.4849196 C73.6696267,50.9268393 75.7149878,49.4404777 77.7607211,47.9480446 C78.8658489,47.1750759 79.9769322,46.3300089 81.2759878,45.9167723 C82.1581544,45.5813259 83.2692378,45.9706563 83.6392267,46.88175 C84.5150656,48.8834241 84.2388767,51.1488259 84.2798211,53.2821741 C84.3326767,60.4013036 83.6920822,67.4972857 83.4512544,74.6107232 C83.43376,77.9488705 83.4043544,81.280567 83.5569656,84.6187143 C81.0176656,84.6069509 78.4839489,84.6426205 75.9446489,84.594808 C75.9680989,76.7201652 75.9621433,68.8398304 75.9502322,60.9651875 C71.1295822,65.0941384 66.3156322,69.2409241 61.5009378,73.3702545 C56.6747044,69.247375 51.8659656,65.0998304 47.0512711,60.9769509 C47.0397322,68.8515938 47.0456878,76.7383795 47.0512711,84.6130223 C31.3676878,84.6247857 15.6777767,84.6190938 0.000148888889,84.6130223 C0.0176433333,56.4514598 0.0176433333,28.2971071 0.0176433333,0.136683036" id="Fill-1" fill="#FFFFFF" mask="url(#mask-2)"></path>
                </g>
                <path d="M50.1375144,0.433310268 C54.7873144,2.4888683 59.4080811,4.58616741 64.0519256,6.64779688 C64.7572867,6.94757366 65.2102811,7.59456027 65.7388367,8.12201563 C64.35752,9.66833259 62.8998978,11.1425513 61.5182089,12.6945603 C57.7327089,8.60165848 53.8939811,4.56226116 50.1375144,0.433310268" id="Fill-4" fill="#FFFFFF"></path>
                <g id="Group-8" transform="translate(126.183333, 0.284598)">
                    <mask id="mask-4" fill="white">
                        <use xlink:href="#path-3"></use>
                    </mask>
                    <g id="Clip-7"></g>
                    <path d="M0.19229,0.0947901786 C2.73754556,1.65287054 5.28875667,3.1991875 7.81651778,4.77510268 C7.79939556,10.5103259 7.81093444,16.2516205 7.81093444,21.9925357 C5.10115667,25.0309063 2.56706778,28.2373795 0.204201111,31.5690759 C0.174795556,21.0818214 0.198617778,10.5881161 0.19229,0.0947901786" id="Fill-6" fill="#FFFFFF" mask="url(#mask-4)"></path>
                </g>
                <path d="M126.951786,49.3710737 C129.032881,45.409846 131.360758,41.568529 133.982692,37.9548906 C133.994231,53.6021004 133.982692,69.2496897 133.987903,84.8908281 C131.448603,84.8968996 128.909303,84.8968996 126.369631,84.8908281 C126.363675,73.6662746 126.375214,62.4356496 126.363675,51.2050246 C126.305236,50.5394442 126.658103,49.9463415 126.951786,49.3710737" id="Fill-9" fill="#FFFFFF"></path>
                <path d="M50.1611133,68.0689487 C52.2652856,69.8486362 54.3348411,71.6886585 56.4632078,73.4383683 C56.5045244,77.255779 56.4747467,81.0735692 56.4807022,84.8970513 L50.1611133,84.8970513 C50.1611133,79.2870513 50.1551578,73.6724978 50.1611133,68.0689487" id="Fill-11" fill="#FFFFFF"></path>
                <path d="M66.0859711,73.887654 C68.32526,71.9580781 70.5708767,70.0345737 72.8168656,68.1106897 C72.7993711,69.6626987 72.8406878,71.2150871 72.78746,72.7553326 C72.3173433,73.1328996 71.8583933,73.5104665 71.4057711,73.8997969 C69.6246878,73.9058683 67.8610989,73.9240826 66.0859711,73.887654" id="Fill-13" fill="#FFFFFF"></path>
            </g>
        </g>
    </g>
</svg>