<svg width="134px" height="31px" viewBox="0 0 134 31" version="1.1" xmlns="http://www.w3.org/2000/svg" xmlns:xlink="http://www.w3.org/1999/xlink">
    <g id="Desktop" stroke="none" stroke-width="1" fill="none" fill-rule="evenodd">
        <g id="Desktop-HD-Copy-52" transform="translate(-112.000000, -4053.000000)" fill="#FFFFFF">
            <path d="M231.700049,4072.69266 C234.865,4072.40931 237.444642,4071.39434 239.100677,4069.7807 C240.221904,4068.68826 240.87277,4067.48556 241.12924,4066.0321 C241.234944,4065.43311 241.233465,4064.18455 241.126281,4063.56326 C240.549371,4060.21871 237.519073,4057.79444 233.02867,4057.08503 C231.950602,4056.91472 231.233598,4056.85925 230.110944,4056.85925 C225.076595,4056.85925 221.170392,4058.70644 219.66808,4061.7976 C219.220276,4062.71896 219.013621,4063.66982 219.013621,4064.80919 C219.013621,4066.31262 219.373682,4067.50494 220.186512,4068.69304 C221.678629,4070.87416 224.508348,4072.26758 228.253695,4072.66557 C229.026167,4072.74762 230.919813,4072.76252 231.700102,4072.69266 L231.700049,4072.69266 Z M228.547882,4076.56721 C228.447619,4076.55611 228.095905,4076.52218 227.766325,4076.49174 C225.120334,4076.24772 222.338634,4075.43462 220.299348,4074.30903 C217.542371,4072.78745 215.622101,4070.62469 214.74551,4068.05411 C214.152276,4066.31442 214.051009,4064.35933 214.460884,4062.56063 C215.080795,4059.84082 216.782155,4057.53129 219.424131,4055.82321 C222.908308,4053.57063 228.031246,4052.57016 232.976584,4053.17655 C237.085162,4053.68034 240.470238,4055.14264 242.825581,4057.43135 C244.619333,4059.17429 245.650651,4061.21666 245.948694,4063.61636 C246.026189,4064.23997 246.014145,4065.50117 245.924394,4066.16287 C245.277965,4070.92814 241.396221,4074.57007 235.451419,4075.98899 C233.649004,4076.41916 232.517581,4076.54937 230.397524,4076.57065 C229.480521,4076.57991 228.648198,4076.57836 228.547882,4076.56721 Z M129.671652,4072.66891 C132.172055,4072.41075 134.275524,4071.7161 135.858185,4070.62597 C137.152047,4069.73479 138.175863,4068.42136 138.635289,4067.06336 C138.904172,4066.26851 138.957526,4065.8953 138.957526,4064.80919 C138.957526,4063.72627 138.904964,4063.35614 138.638141,4062.56073 C137.761128,4059.94636 135.196014,4058.00171 131.61189,4057.23395 C128.469443,4056.56084 124.804707,4056.79479 122.089462,4057.84188 C120.13063,4058.59725 118.584419,4059.82 117.677717,4061.33083 C116.713488,4062.93738 116.494737,4065.1256 117.10984,4067.01134 C117.77254,4069.04317 119.518379,4070.74359 121.920842,4071.69738 C123.229443,4072.21684 124.849662,4072.5788 126.45377,4072.70999 C127.06919,4072.76031 129.028868,4072.73533 129.671652,4072.66896 L129.671652,4072.66891 Z M126.271415,4076.56551 C123.728752,4076.34693 121.55851,4075.8595 119.712989,4075.09241 C115.515453,4073.34768 112.864232,4070.40302 112.144745,4066.6864 C112.007345,4065.97653 111.954942,4064.37733 112.044006,4063.61312 C112.563601,4059.15722 115.936685,4055.62781 121.269606,4053.95999 C124.107513,4053.07246 127.600829,4052.78252 130.736303,4053.17429 C136.480948,4053.89208 140.826344,4056.48435 142.73626,4060.33283 C144.291398,4063.46641 144.094041,4067.27274 142.224748,4070.19894 C141.382652,4071.51726 139.996187,4072.87762 138.567513,4073.78746 C136.344763,4075.20294 133.689951,4076.08358 130.465624,4076.47488 C129.819776,4076.55328 126.870512,4076.61697 126.271415,4076.56546 L126.271415,4076.56551 Z M198.548809,4072.59797 C202.282957,4072.05533 204.914421,4070.59143 206.297136,4068.2875 C207.100246,4066.94934 207.400983,4065.16914 207.103151,4063.51627 C206.484033,4060.08073 203.381364,4057.70345 198.631111,4057.02493 C195.495849,4056.57713 191.955835,4057.02319 189.549462,4058.16929 C187.092957,4059.33915 185.614628,4061.08598 185.10993,4063.4149 C184.977443,4064.02622 184.977866,4065.59792 185.110723,4066.19716 C185.468089,4067.81019 186.275901,4069.1448 187.50204,4070.14789 C189.190299,4071.52903 191.387535,4072.35143 194.238701,4072.66937 C195.181746,4072.7745 197.611046,4072.7343 198.548862,4072.59797 L198.548809,4072.59797 Z M180.197133,4069.04281 L180.197133,4054.08567 L182.593786,4054.08567 L184.990491,4054.08567 L184.990491,4055.07437 C184.990491,4055.61815 185.000951,4056.06307 185.013629,4056.06307 C185.026307,4056.06307 185.290066,4055.90232 185.599784,4055.7059 C186.316313,4055.25131 187.730723,4054.57146 188.637636,4054.2457 C192.552713,4052.83948 197.332865,4052.61268 201.516138,4053.63474 C208.33526,4055.30077 212.351023,4059.86514 211.971892,4065.51901 C211.682513,4069.83478 208.731453,4073.37981 203.877556,4075.24272 C202.294157,4075.85045 200.671507,4076.23368 198.640778,4076.47951 C197.568996,4076.60926 194.680218,4076.6091 193.561263,4076.4792 C190.394463,4076.11159 187.614084,4075.19646 185.446378,4073.80833 L184.990491,4073.51635 L184.990491,4078.7582 L184.990491,4084 L182.593786,4084 L180.197133,4084 L180.197133,4069.04281 Z M164.305976,4072.61997 C167.002098,4072.24784 169.093999,4071.41537 170.662397,4070.09052 C171.849709,4069.08764 172.676538,4067.69473 172.989795,4066.17002 C173.117897,4065.54641 173.118267,4064.07367 172.990535,4063.45191 C172.621705,4061.65747 171.565031,4060.08999 169.983216,4058.99076 C169.345609,4058.54764 168.050479,4057.91642 167.223755,4057.64582 C164.889173,4056.88161 162.058715,4056.65532 159.46629,4057.02555 C154.965164,4057.66844 151.922927,4059.84082 151.106716,4062.99486 C150.746602,4064.38643 150.810891,4065.88872 151.286799,4067.20174 C152.367773,4070.18419 155.555228,4072.16888 160.059682,4072.66418 C160.965274,4072.76381 163.451784,4072.7379 164.306029,4072.61997 L164.305976,4072.61997 Z M146.0702,4069.04281 L146.0702,4054.08567 L148.466906,4054.08567 L150.863612,4054.08567 L150.863612,4055.07437 C150.863612,4055.61815 150.872169,4056.06307 150.882576,4056.06307 C150.892983,4056.06307 151.195569,4055.88382 151.55489,4055.66483 C155.794264,4053.08083 161.956867,4052.3027 167.484187,4053.65355 C172.463861,4054.87055 176.073817,4057.75953 177.357113,4061.55471 C178.107028,4063.77248 178.065666,4066.2388 177.242587,4068.38368 C176.218771,4071.05177 174.11398,4073.19696 171.078083,4074.66646 C168.421369,4075.95244 165.388165,4076.59636 161.9874,4076.59636 C159.168141,4076.59636 156.538844,4076.13894 154.224176,4075.24576 C153.305747,4074.89136 152.128525,4074.3096 151.414373,4073.85722 L150.863612,4073.50833 L150.863612,4078.75414 L150.863612,4083.99995 L148.466906,4083.99995 L146.0702,4083.99995 L146.0702,4069.04281 Z" id="Fill-1"></path>
        </g>
    </g>
</svg>