<svg width="134px" height="60px" viewBox="0 0 134 60" version="1.1" xmlns="http://www.w3.org/2000/svg" xmlns:xlink="http://www.w3.org/1999/xlink">
    <defs>
        <polygon id="path-1" points="0.449546718 0.473017241 14.1527282 0.473017241 14.1527282 16.5517241 0.449546718 16.5517241"></polygon>
        <polygon id="path-3" points="0.0557212355 0.473017241 13.7589027 0.473017241 13.7589027 16.5517241 0.0557212355 16.5517241"></polygon>
        <polygon id="path-5" points="0.173475676 0.472913793 13.0452363 0.472913793 13.0452363 16.5517241 0.173475676 16.5517241"></polygon>
        <polygon id="path-7" points="0.320720463 0.472913793 13.1929985 0.472913793 13.1929985 16.5517241 0.320720463 16.5517241"></polygon>
        <polygon id="path-9" points="0.284659459 0.0545689655 6.2732695 0.0545689655 6.2732695 21.2068966 0.284659459 21.2068966"></polygon>
        <polygon id="path-11" points="0.413227027 0.0545689655 6.40183707 0.0545689655 6.40183707 21.2068966 0.413227027 21.2068966"></polygon>
    </defs>
    <g id="Desktop" stroke="none" stroke-width="1" fill="none" fill-rule="evenodd">
        <g id="Desktop-HD-Copy-52" transform="translate(-1194.000000, -3820.000000)">
            <g id="Group-39" transform="translate(1194.000000, 3820.000000)">
                <path d="M12.3777714,20.0554655 C13.0136247,19.4342586 13.3307753,18.5839138 13.3307753,17.504431 C13.3307753,16.8356379 13.1926363,16.2216724 12.9153236,15.6630517 C12.6380108,15.104431 12.2080726,14.6554655 11.6249915,14.3156379 C11.0424278,13.9768448 10.3113776,13.8071897 9.4323583,13.8071897 L5.13194131,13.8071897 L5.13194131,20.9870172 L9.4323583,20.9870172 C10.7604587,20.9870172 11.7419181,20.6761552 12.3777714,20.0554655 M13.5242734,11.6642586 C14.675949,12.2332241 15.5528988,13.0209828 16.1551228,14.0296034 C16.7568293,15.0371897 17.0579413,16.1865 17.0579413,17.4759828 C17.0579413,18.8228793 16.7594162,19.983569 16.1618486,20.9580517 C15.5647985,21.9325345 14.6950919,22.6778793 13.5532463,23.193569 C12.4108834,23.7092586 11.0377714,23.9673621 9.4323583,23.9673621 L5.13194131,23.9673621 L5.13194131,31.6778793 L1.41926178,31.6778793 L1.41926178,10.8118448 L9.4323583,10.8118448 C11.0087985,10.8118448 12.3731151,11.0963276 13.5242734,11.6642586" id="Fill-1" fill="#FFFFFF"></path>
                <path d="M29.4716185,22.1905862 C29.4240201,21.1876552 29.1513637,20.3636897 28.6546842,19.7186897 C28.1574873,19.0736897 27.383495,18.7514483 26.3327073,18.7514483 C25.3957421,18.7514483 24.6408927,19.0762759 24.0676417,19.7254138 C23.4943907,20.375069 23.1260201,21.288 22.9635645,22.4626552 L29.4716185,22.4626552 L29.4716185,22.1905862 Z M32.9980432,25.0426552 L22.8921668,25.0426552 C22.9589081,25.8355862 23.1648232,26.5374828 23.5083598,27.1488621 C23.8524139,27.7607586 24.3185683,28.2381724 24.9063058,28.5821379 C25.4940432,28.9255862 26.1795645,29.0978276 26.9628695,29.0978276 C28.5682826,29.0978276 29.8586147,28.4678276 30.8333483,27.2062759 L32.7398734,29.0548966 C32.1759351,29.8861034 31.3926301,30.5792069 30.3889236,31.1331724 C29.3857344,31.6871379 28.1719737,31.9643793 26.7481591,31.9643793 C25.2379429,31.9643793 23.9196726,31.6369655 22.7917961,30.9826552 C21.6644371,30.3278276 20.7993869,29.4324828 20.1971629,28.2955862 C19.5954564,27.1581724 19.2943444,25.8831724 19.2943444,24.4690345 L19.2943444,23.8819655 C19.2943444,22.2862759 19.6001127,20.8845517 20.2116494,19.6757586 C20.8231861,18.4669655 21.6644371,17.5328276 22.7343676,16.8738621 C23.8048154,16.2143793 25.0087459,15.8854138 26.3466764,15.8854138 C27.8087768,15.8854138 29.0370239,16.205069 30.0309004,16.8454138 C31.0242595,17.4852414 31.7672093,18.3811034 32.2597498,19.5319655 C32.751773,20.6833448 32.9980432,22.0188621 32.9980432,23.5374828 L32.9980432,25.0426552 Z" id="Fill-3" fill="#FFFFFF"></path>
                <path d="M66.3683892,22.1905862 C66.3207907,21.1876552 66.0481344,20.3636897 65.5514548,19.7186897 C65.0542579,19.0736897 64.2802656,18.7514483 63.229478,18.7514483 C62.2930301,18.7514483 61.5376633,19.0762759 60.9644124,19.7254138 C60.3911614,20.375069 60.0233081,21.288 59.8603351,22.4626552 L66.3683892,22.4626552 L66.3683892,22.1905862 Z M69.8948139,25.0426552 L59.7889375,25.0426552 C59.8561961,25.8355862 60.0615938,26.5374828 60.4056479,27.1488621 C60.7491846,27.7607586 61.215339,28.2381724 61.8030764,28.5821379 C62.3908139,28.9255862 63.0763351,29.0978276 63.8596402,29.0978276 C65.4655707,29.0978276 66.7553853,28.4678276 67.7301189,27.2062759 L69.636644,29.0548966 C69.0732232,29.8861034 68.2894008,30.5792069 67.2856942,31.1331724 C66.282505,31.6871379 65.0687444,31.9643793 63.6449297,31.9643793 C62.1352309,31.9643793 60.8164432,31.6369655 59.6885668,30.9826552 C58.5612077,30.3278276 57.6961575,29.4324828 57.0939336,28.2955862 C56.492227,27.1581724 56.1911151,25.8831724 56.1911151,24.4690345 L56.1911151,23.8819655 C56.1911151,22.2862759 56.4968834,20.8845517 57.1084201,19.6757586 C57.7199568,18.4669655 58.5612077,17.5328276 59.6316556,16.8738621 C60.7015861,16.2143793 61.906034,15.8854138 63.2434471,15.8854138 C64.7055475,15.8854138 65.9337946,16.205069 66.927671,16.8454138 C67.9210301,17.4852414 68.6644973,18.3811034 69.1565205,19.5319655 C69.6485436,20.6833448 69.8948139,22.0188621 69.8948139,23.5374828 L69.8948139,25.0426552 Z" id="Fill-5" fill="#FFFFFF"></path>
                <path d="M85.3184726,26.5184483 C85.290017,27.512069 84.988905,28.4244828 84.4156541,29.2556897 C83.8418857,30.0863793 83.0777236,30.7463793 82.1221328,31.2331034 C81.1665421,31.7208621 80.1198934,31.9639655 78.9827042,31.9639655 C77.4440324,31.9639655 76.1423181,31.62 75.0765266,30.932069 C74.0112525,30.2446552 73.2155305,29.3105172 72.689878,28.1306897 C72.1642255,26.9508621 71.9013992,25.6298276 71.9013992,24.1681034 L71.9013992,23.6813793 C71.9013992,22.2191379 72.1668124,20.8986207 72.6971212,19.7187931 C73.2274301,18.5384483 74.0231521,17.6048276 75.0837699,16.9168966 C76.144905,16.2289655 77.4393761,15.885 78.9687351,15.885 C80.2011212,15.885 81.2927815,16.1312069 82.2437158,16.6231034 C83.1946502,17.115 83.9376,17.805 84.4730826,18.6936207 C85.0080479,19.5822414 85.290017,20.6001724 85.3184726,21.7463793 L81.9498471,21.7463793 C81.9213915,21.1924138 81.7827351,20.6886207 81.5343954,20.2344828 C81.2860556,19.7808621 80.9394147,19.4198276 80.49499,19.1524138 C80.0505653,18.885 79.5274996,18.7510345 78.9252757,18.7510345 C77.6546039,18.7510345 76.7605807,19.2144828 76.2447583,20.1413793 C75.7289359,21.0682759 75.470766,22.2481034 75.470766,23.6813793 L75.470766,24.1681034 C75.470766,27.4551724 76.6270981,29.097931 78.9397622,29.097931 C79.4845575,29.097931 79.9812371,28.9877586 80.4303181,28.7684483 C80.8793992,28.5486207 81.2379398,28.242931 81.5054224,27.8513793 C81.772905,27.4593103 81.9213915,27.0155172 81.9498471,26.5184483 L85.3184726,26.5184483 Z" id="Fill-7" fill="#FFFFFF"></path>
                <polygon id="Fill-9" fill="#FFFFFF" points="24.6265097 38.8140517 19.8387259 59.6800862 17.3589498 59.6800862 16.2409035 59.6800862 12.3564556 44.589569 8.38560618 59.6800862 6.03465637 59.6800862 4.78778378 59.6800862 0 38.8140517 3.68370656 38.8140517 6.88056371 54.3773276 10.7939846 38.8140517 13.0585328 38.8140517 13.9044402 38.8140517 17.7744015 54.4202586 20.9283166 38.8140517"></polygon>
                <g id="Group-13" transform="translate(25.868726, 43.414655)">
                    <mask id="mask-2" fill="white">
                        <use xlink:href="#path-1"></use>
                    </mask>
                    <g id="Clip-12"></g>
                    <path d="M10.6268208,6.77818966 C10.5792224,5.77525862 10.306566,4.9512931 9.80936911,4.3062931 C9.31268958,3.6612931 8.5386973,3.33905172 7.48739228,3.33905172 C6.5509444,3.33905172 5.79609498,3.66387931 5.22284402,4.31301724 C4.64907568,4.96267241 4.28122239,5.87560345 4.1187668,7.05025862 L10.6268208,7.05025862 L10.6268208,6.77818966 Z M14.1527282,9.63025862 L4.04736911,9.63025862 C4.11411042,10.4231897 4.31950811,11.1250862 4.66356216,11.7364655 C5.00761622,12.3483621 5.47377066,12.8252586 6.06099073,13.1692241 C6.64924556,13.5131897 7.3347668,13.685431 8.11807181,13.685431 C9.72348494,13.685431 11.013817,13.0549138 11.9885506,11.7938793 L13.8950757,13.6425 C13.3311375,14.4737069 12.5473151,15.1662931 11.5441259,15.7202586 C10.5404193,16.2742241 9.32717606,16.5519828 7.90336139,16.5519828 C6.39314517,16.5519828 5.0748749,16.224569 3.94699846,15.5702586 C2.81912201,14.915431 1.95458919,14.0200862 1.35236525,12.8831897 C0.750141313,11.7457759 0.449546718,10.4707759 0.449546718,9.05663793 L0.449546718,8.46956897 C0.449546718,6.87387931 0.754797683,5.47163793 1.36685174,4.26336207 C1.97838842,3.05456897 2.81912201,2.12043103 3.88956988,1.46146552 C4.96001776,0.801982759 6.16394826,0.473017241 7.50187876,0.473017241 C8.96397915,0.473017241 10.1922263,0.792672414 11.1861027,1.4325 C12.1794618,2.07284483 12.9224116,2.9687069 13.4149521,4.11956897 C13.9069753,5.27094828 14.1527282,6.60594828 14.1527282,8.12508621 L14.1527282,9.63025862 Z" id="Fill-11" fill="#FFFFFF" mask="url(#mask-2)"></path>
                </g>
                <g id="Group-16" transform="translate(76.054054, 43.414655)">
                    <mask id="mask-4" fill="white">
                        <use xlink:href="#path-3"></use>
                    </mask>
                    <g id="Clip-15"></g>
                    <path d="M10.2329954,6.77818966 C10.1853969,5.77525862 9.91274054,4.9512931 9.416061,4.3062931 C8.91886409,3.6612931 8.14487181,3.33905172 7.0935668,3.33905172 C6.15711892,3.33905172 5.4022695,3.66387931 4.82901853,4.31301724 C4.25525019,4.96267241 3.88739691,5.87560345 3.72494131,7.05025862 L10.2329954,7.05025862 L10.2329954,6.77818966 Z M13.7589027,9.63025862 L3.65354363,9.63025862 C3.72028494,10.4231897 3.92568263,11.1250862 4.26973668,11.7364655 C4.61379073,12.3483621 5.07994517,12.8252586 5.66768263,13.1692241 C6.25542008,13.5131897 6.94094131,13.685431 7.72424633,13.685431 C9.32965946,13.685431 10.6199915,13.0549138 11.5947251,11.7938793 L13.5012502,13.6425 C12.937312,14.4737069 12.1534896,15.1662931 11.1503004,15.7202586 C10.1465938,16.2742241 8.93335058,16.5519828 7.50953591,16.5519828 C5.99931969,16.5519828 4.68104942,16.224569 3.55317297,15.5702586 C2.42529653,14.915431 1.56076371,14.0200862 0.958539768,12.8831897 C0.356833205,11.7457759 0.0557212355,10.4707759 0.0557212355,9.05663793 L0.0557212355,8.46956897 C0.0557212355,6.87387931 0.360972201,5.47163793 0.973026255,4.26336207 C1.58456293,3.05456897 2.42529653,2.12043103 3.4957444,1.46146552 C4.56619228,0.801982759 5.77012278,0.473017241 7.10805328,0.473017241 C8.57015367,0.473017241 9.79840077,0.792672414 10.7922772,1.4325 C11.7856363,2.07284483 12.5285861,2.9687069 13.0211266,4.11956897 C13.5131498,5.27094828 13.7589027,6.60594828 13.7589027,8.12508621 L13.7589027,9.63025862 Z" id="Fill-14" fill="#FFFFFF" mask="url(#mask-4)"></path>
                </g>
                <g id="Group-19" transform="translate(91.575290, 43.414655)">
                    <mask id="mask-6" fill="white">
                        <use xlink:href="#path-5"></use>
                    </mask>
                    <g id="Clip-18"></g>
                    <path d="M2.13691197,8.13946552 C1.17200849,7.41377586 0.689298069,6.42946552 0.689298069,5.18756897 C0.689298069,4.3367069 0.935050965,3.55153448 1.42759151,2.82998276 C1.91961467,2.10894828 2.62169189,1.53532759 3.53485792,1.11015517 C4.44698919,0.684982759 5.50088108,0.472913793 6.69549884,0.472913793 C7.96617066,0.472913793 9.07231737,0.687568966 10.013939,1.11739655 C10.9550432,1.54722414 11.6788502,2.13739655 12.1853598,2.88739655 C12.6918695,3.63739655 12.945383,4.4805 12.945383,5.4167069 L9.37601622,5.4167069 C9.37601622,5.0055 9.27305869,4.62636207 9.067661,4.27722414 C8.86226332,3.92860345 8.55908185,3.6492931 8.15759923,3.43877586 C7.7561166,3.22877586 7.26874981,3.12377586 6.69549884,3.12377586 C5.88322085,3.12377586 5.25719768,3.30532759 4.81742934,3.66791379 C4.37817838,4.03153448 4.15829421,4.48567241 4.15829421,5.02981034 C4.15829421,5.37377586 4.25142162,5.66498276 4.43767645,5.90394828 C4.62393127,6.14291379 4.94677297,6.35808621 5.4051668,6.54894828 C5.86407799,6.73981034 6.4994139,6.92187931 7.31169189,7.09360345 C8.57305097,7.36101724 9.61969961,7.68584483 10.4511205,8.06756897 C11.2825413,8.45032759 11.9225336,8.94687931 12.3716147,9.55825862 C12.8206958,10.1696379 13.0452363,10.9341207 13.0452363,11.8511897 C13.0452363,12.7589483 12.7849969,13.5710172 12.2645181,14.2873966 C11.743522,15.0037759 11.0052286,15.5608448 10.0496378,15.9570517 C9.0940471,16.3537759 7.98996988,16.5518793 6.73844093,16.5518793 C5.38136757,16.5518793 4.20589266,16.3030862 3.21201622,15.8065345 C2.21813977,15.3094655 1.46329035,14.6644655 0.947467954,13.8720517 C0.431128185,13.0791207 0.173475676,12.2432586 0.173475676,11.3639483 L3.62798533,11.3639483 C3.66627104,12.233431 3.98859537,12.8732586 4.59547568,13.2839483 C5.20235598,13.6951552 5.93547568,13.9005 6.7958695,13.9005 C7.66557606,13.9005 8.34126718,13.7313621 8.82397761,13.3915345 C9.30668803,13.0527414 9.54778456,12.6011897 9.54778456,12.0373966 C9.54778456,11.6742931 9.46190039,11.3639483 9.29013205,11.1058448 C9.11784633,10.8477414 8.79034826,10.6087759 8.30815521,10.3894655 C7.82544479,10.1696379 7.13940618,9.96894828 6.25107413,9.78791379 C4.47337529,9.41498276 3.10233282,8.86567241 2.13691197,8.13946552" id="Fill-17" fill="#FFFFFF" mask="url(#mask-6)"></path>
                </g>
                <g id="Group-22" transform="translate(106.579151, 43.414655)">
                    <mask id="mask-8" fill="white">
                        <use xlink:href="#path-7"></use>
                    </mask>
                    <g id="Clip-21"></g>
                    <path d="M2.28467413,8.13946552 C1.31925328,7.41377586 0.837060232,6.42946552 0.837060232,5.18756897 C0.837060232,4.3367069 1.08281313,3.55153448 1.57483629,2.82998276 C2.06737683,2.10894828 2.76945405,1.53532759 3.6821027,1.11015517 C4.59475135,0.684982759 5.64812587,0.472913793 6.843261,0.472913793 C8.11393282,0.472913793 9.22007954,0.687568966 10.1617012,1.11739655 C11.1028054,1.54722414 11.8266124,2.13739655 12.333122,2.88739655 C12.8396317,3.63739655 13.0926278,4.4805 13.0926278,5.4167069 L9.52377838,5.4167069 C9.52377838,5.0055 9.42082085,4.62636207 9.21542317,4.27722414 C9.01002548,3.92860345 8.70632664,3.6492931 8.30484402,3.43877586 C7.90387876,3.22877586 7.41599459,3.12377586 6.843261,3.12377586 C6.03046564,3.12377586 5.40495985,3.30532759 4.96519151,3.66791379 C4.52542317,4.03153448 4.305539,4.48567241 4.305539,5.02981034 C4.305539,5.37377586 4.39866641,5.66498276 4.58543861,5.90394828 C4.77169344,6.14291379 5.09401776,6.35808621 5.55292896,6.54894828 C6.01184015,6.73981034 6.64717606,6.92187931 7.45945405,7.09360345 C8.72081313,7.36101724 9.7669444,7.68584483 10.5983653,8.06756897 C11.4297861,8.45032759 12.0702958,8.94687931 12.5193768,9.55825862 C12.9684579,10.1696379 13.1929985,10.9341207 13.1929985,11.8511897 C13.1929985,12.7589483 12.9327591,13.5710172 12.4117629,14.2873966 C11.8907668,15.0037759 11.1529907,15.5608448 10.1968826,15.9570517 C9.24180927,16.3537759 8.13773205,16.5518793 6.88620309,16.5518793 C5.52912973,16.5518793 4.35365483,16.3030862 3.35977838,15.8065345 C2.36590193,15.3094655 1.61105251,14.6644655 1.09471274,13.8720517 C0.578890347,13.0791207 0.320720463,12.2432586 0.320720463,11.3639483 L3.77523012,11.3639483 C3.81351583,12.233431 4.13635753,12.8732586 4.74272046,13.2839483 C5.34960077,13.6951552 6.08323784,13.9005 6.94311429,13.9005 C7.81282085,13.9005 8.48902934,13.7313621 8.97173977,13.3915345 C9.45393282,13.0527414 9.69554672,12.6011897 9.69554672,12.0373966 C9.69554672,11.6742931 9.60966255,11.3639483 9.43737683,11.1058448 C9.26560849,10.8477414 8.93811042,10.6087759 8.4554,10.3894655 C7.97320695,10.1696379 7.28716834,9.96894828 6.39883629,9.78791379 C4.62113745,9.41498276 3.24957761,8.86567241 2.28467413,8.13946552" id="Fill-20" fill="#FFFFFF" mask="url(#mask-8)"></path>
                </g>
                <g id="Group-25" transform="translate(42.424710, 38.759483)">
                    <mask id="mask-10" fill="white">
                        <use xlink:href="#path-9"></use>
                    </mask>
                    <g id="Clip-24"></g>
                    <path d="M3.89541622,0.0545689655 L3.89541622,16.3057759 C3.89541622,17.5973276 4.4236556,18.0669828 5.39269807,18.0669828 C5.80349344,18.0669828 6.06787181,18.0080172 6.2732695,17.919569 L6.2732695,20.8243966 C5.71502239,21.0592241 5.04036602,21.2071552 4.18928494,21.2071552 C1.69450502,21.2071552 0.284659459,19.7397414 0.284659459,17.2450862 L0.284659459,0.0545689655 L3.89541622,0.0545689655 Z" id="Fill-23" fill="#FFFFFF" mask="url(#mask-10)"></path>
                </g>
                <g id="Group-28" transform="translate(51.220077, 38.759483)">
                    <mask id="mask-12" fill="white">
                        <use xlink:href="#path-11"></use>
                    </mask>
                    <g id="Clip-27"></g>
                    <path d="M4.02398378,0.0545689655 L4.02398378,16.3057759 C4.02398378,17.5973276 4.55222317,18.0669828 5.52126564,18.0669828 C5.932061,18.0669828 6.19643938,18.0080172 6.40183707,17.919569 L6.40183707,20.8243966 C5.84358996,21.0592241 5.16893359,21.2071552 4.31785251,21.2071552 C1.82307259,21.2071552 0.413227027,19.7397414 0.413227027,17.2450862 L0.413227027,0.0545689655 L4.02398378,0.0545689655 Z" id="Fill-26" fill="#FFFFFF" mask="url(#mask-12)"></path>
                </g>
                <path d="M93.9623004,29.0122241 C93.4273351,29.0122241 93.0258525,28.8948103 92.7583699,28.6610172 C92.4908873,28.4267069 92.3568873,27.9849828 92.3568873,27.3353276 L92.3568873,18.9927414 L95.0803467,18.9927414 L95.0803467,16.1717069 L92.3568873,16.1717069 L92.3568873,10.8115345 L88.7875205,12.3880862 L88.7875205,16.1717069 L86.2648023,16.1717069 L86.2648023,18.9927414 L88.7875205,18.9927414 L88.7875205,27.5789483 C88.7875205,29.1079138 89.1507174,30.2205 89.8771112,30.9182586 C90.603505,31.6155 91.5973815,31.9641207 92.8587405,31.9641207 C93.718617,31.9641207 94.4926093,31.8492931 95.1807174,31.6201552 L95.1807174,28.8689483 C94.7507792,28.9641207 94.3446402,29.0122241 93.9623004,29.0122241" id="Fill-29" fill="#FFFFFF"></path>
                <path d="M51.7904309,12.9186207 C52.2203691,12.4986207 52.8272494,12.2881034 53.6110718,12.2881034 C54.1268942,12.2881034 54.5713189,12.3310345 54.9438286,12.4168966 L55.0302301,9.62275862 C54.342122,9.45051724 53.6824695,9.36465517 53.05179,9.36465517 C51.9239135,9.36465517 50.9496973,9.57 50.1275892,9.98068966 C49.3059985,10.3913793 48.6753189,10.9981034 48.2355506,11.8008621 C47.7957822,12.6036207 47.5758981,13.5734483 47.5758981,14.7098276 L47.5758981,16.1715517 L45.2109792,16.1715517 L45.2109792,18.9925862 L47.5758981,18.9925862 L47.5758981,31.677931 L51.1452649,31.677931 L51.1452649,18.9925862 L54.2846934,18.9925862 L54.2846934,16.1715517 L51.1452649,16.1715517 L51.1452649,14.7098276 C51.1452649,13.9360345 51.3604927,13.3386207 51.7904309,12.9186207" id="Fill-31" fill="#FFFFFF"></path>
                <path d="M72.1757112,45.2558276 C71.3204911,44.3434138 70.104661,43.8872069 68.5277035,43.8872069 C66.6827459,43.8872069 65.3308463,45.0742759 64.3085143,45.0742759 C63.3094641,45.0742759 63.270661,44.2177241 63.2691089,44.178931 L63.2691089,44.168069 L60.557549,44.1737586 L60.557549,59.6796207 L64.1269158,59.6796207 L64.1269158,48.6453103 C64.4419969,48.0623793 64.8626224,47.6087586 65.3882749,47.2834138 C65.9139274,46.9585862 66.5109776,46.7966897 67.1799429,46.7966897 C68.0977653,46.7966897 68.7786301,47.0134138 69.2225375,47.4484138 C69.6669622,47.8828966 69.8894332,48.6163448 69.8894332,49.6482414 L69.8894332,59.6796207 L73.4582826,59.6796207 L73.4582826,49.6766897 C73.4582826,47.6418621 73.0309313,46.1682414 72.1757112,45.2558276" id="Fill-33" fill="#FFFFFF"></path>
                <path d="M43.847956,15.8857241 L43.8469212,15.8857241 L43.8469212,15.8852069 L43.8453691,15.8857241 C42.0014463,15.8872759 40.4198324,17.0727931 39.3980178,17.0727931 C38.4460486,17.0727931 38.366373,16.3000345 38.3596471,16.1934828 L38.3596471,16.1712414 L35.6470525,16.1717586 L35.6470525,31.6776207 L39.2164193,31.6776207 L39.2164193,21.1155517 C39.7612147,19.9217586 40.8316625,19.3243448 42.4277629,19.3243448 C42.8959869,19.3243448 43.3688672,19.3626207 43.8469212,19.4391724 L43.8469212,15.8867586 L43.847956,15.8857241 Z" id="Fill-35" fill="#FFFFFF"></path>
                <polygon id="Fill-37" fill="#FFFFFF" points="111.336771 0.000206896552 111.336771 5.3877931 128.624841 5.3877931 128.624841 22.6708966 133.979667 22.6708966 133.979667 0.000206896552"></polygon>
            </g>
        </g>
    </g>
</svg>