<svg width="134px" height="120px" viewBox="0 0 134 120" version="1.1" xmlns="http://www.w3.org/2000/svg" xmlns:xlink="http://www.w3.org/1999/xlink">
    <defs>
        <polygon id="path-1" points="0 0 134 0 134 119.996527 0 119.996527"></polygon>
    </defs>
    <g id="Desktop" stroke="none" stroke-width="1" fill="none" fill-rule="evenodd">
        <g id="Desktop-HD-Copy-52" transform="translate(-978.000000, -3790.000000)">
            <g id="Group-3" transform="translate(978.000000, 3790.000000)">
                <mask id="mask-2" fill="white">
                    <use xlink:href="#path-1"></use>
                </mask>
                <g id="Clip-2"></g>
                <path d="M90.5756154,27.7485531 C90.5756154,25.3319614 94.0718669,22.5291318 96.1048383,23.3154984 C99.211724,24.5170418 96.2051469,29.8745981 92.4248154,29.8745981 C91.0247069,29.8745981 90.5756154,29.358328 90.5756154,27.7485531 M39.8328783,50.9629582 C38.3734269,49.8872026 38.3680669,49.7054662 39.7329526,47.6056592 C41.7797069,44.4578778 44.1392554,43.3230868 45.4157011,44.8730547 C46.7572326,46.502508 45.8410554,49.1517685 43.3723926,50.7819936 C41.6977754,51.8878457 41.1277011,51.9167846 39.8328783,50.9629582 M87.2416954,59.5771061 C86.7190954,58.9423794 86.465644,57.1176849 86.6785126,55.5225723 C86.891764,53.927074 87.3186497,49.5723473 87.6276154,45.8454019 C88.0916383,40.2451447 88.5499183,38.705209 90.2697126,36.9719614 C92.0032897,35.2248232 92.5687697,35.0569775 93.6576154,35.9679743 C94.5397183,36.7057235 94.8134611,37.9149839 94.4995183,39.6910611 C94.2441526,41.1376206 93.9688783,45.4113183 93.8884783,49.1880386 C93.712364,57.4691961 93.5630497,57.9318328 90.558004,59.4980064 C88.5809297,60.5282315 88.0353583,60.5413505 87.2416954,59.5771061 M47.5103126,77.856463 C46.5413011,76.2760129 48.0221926,57.9333762 49.277964,55.9581994 C50.269564,54.3989711 57.2463697,51.3341479 59.8034726,51.3341479 C60.2694097,51.3341479 60.9068669,52.1471383 61.2196611,53.1410932 C61.6503754,54.5085531 61.0209583,55.7401929 58.6300154,58.207717 C55.6303297,61.3034084 55.4427297,61.833955 54.9105583,68.7322186 C54.5985297,72.7798071 53.8385583,76.6178778 53.1949754,77.3992283 C51.8817754,78.9943408 48.3809297,79.275627 47.5103126,77.856463 M34.9173754,85.0209646 C34.1110783,83.7063666 35.7822497,64.5673312 36.8841126,62.4929904 C39.0495526,58.4172347 42.4340097,57.7566559 43.1020954,61.2794855 C43.7077754,64.4727974 41.4263297,83.0438585 40.2528726,84.4684244 C39.2057583,85.7398071 35.5877583,86.1144695 34.9173754,85.0209646 M18.6865297,107.260707 C18.0823811,106.275241 15.1734326,89.5909968 13.0734611,75.0675241 C10.8662897,59.7989711 10.3980554,58.9697749 8.03314686,66.1323473 C7.01551257,69.2141479 5.48829543,72.3692605 4.63911829,73.1436656 C3.01733543,74.6230225 0.711769714,74.2707395 0.0134382857,72.4367846 C-0.319647429,71.561672 5.59472971,52.797299 8.42327829,45.7547267 C9.67407257,42.6393569 12.0918154,41.887717 14.1588611,43.9705466 C14.8246497,44.6419293 15.823524,48.2149196 16.3786669,51.9106109 C16.9338097,55.6063023 18.0015983,61.5272026 18.7516154,65.0681672 C20.205324,71.9282315 20.403644,73.2293248 20.7175869,77.9436656 L20.9174383,80.94791 L21.5889697,77.5145981 C21.9584269,75.6262379 22.9021697,70.4118328 23.6862611,65.9266881 C25.5634097,55.1891961 30.4479011,35.9641158 33.1903069,28.518328 C34.393244,25.2513183 36.6984269,18.9167846 38.3129354,14.441672 C42.0013811,4.21427653 43.6694897,1.33350482 46.4785126,0.337620579 C48.1481526,-0.254276527 49.261884,-0.0883601286 50.904724,0.996655949 C54.1789183,3.15858521 53.8060154,6.50893891 49.7408383,11.4671383 C46.056604,15.9603859 40.744844,28.1367203 37.7788497,38.887717 C36.7367126,42.6644373 35.1681469,47.6859164 34.2925526,50.0465595 C32.6286554,54.5340193 31.2071069,60.4306109 30.5585469,65.5373633 C30.3479754,67.1934405 29.9957469,68.8421865 29.7748383,69.2018006 C29.5546954,69.5614148 29.1626497,72.1581994 28.9038383,74.9726045 C28.6454097,77.7870096 28.2277126,81.0555627 27.9754097,82.2354984 C27.7231069,83.4158199 26.9305926,88.8239228 26.2142669,94.2528617 C24.6288554,106.269068 24.005564,107.987267 21.2294669,107.987267 C20.0759183,107.987267 18.9315583,107.660064 18.6865297,107.260707 M75.2379754,118.275627 C74.6426326,117.153955 74.4079411,110.367588 74.5695069,98.9610289 C74.7065697,89.2892605 74.6939354,81.3758199 74.5411754,81.3765916 C74.0051754,81.378135 63.6730097,89.5470096 56.5070726,95.6338264 C52.5253583,99.0165916 46.0841697,105.135048 42.1931926,109.230482 C34.6708154,117.149711 32.7653354,117.95537 30.3334269,114.245016 C29.1615011,112.457363 29.3506326,112.069582 33.6424611,107.471768 C39.3037697,101.407331 50.910084,91.505209 63.7495811,81.7855949 C73.5997297,74.3293891 77.5711069,70.1448232 73.4014097,71.616463 C72.307204,72.0023151 69.8936726,72.328746 68.0387297,72.3414791 C63.2840269,72.3738907 62.2258097,70.1386495 62.8690097,61.4241801 C63.4643526,53.3614148 64.3257811,50.8854019 67.7986783,47.2568489 C72.4741297,42.3715756 76.8130497,44.4906752 72.8343983,49.7162701 C70.7198783,52.4944051 70.0992669,54.4109325 69.6758269,59.4736977 C69.233244,64.7664309 70.0709354,66.4803859 72.4687697,65.1873955 C74.4469926,64.1201286 75.0618611,61.5507395 75.764404,51.4217363 C76.3007869,43.6865595 77.5136783,41.0338264 80.5137469,41.0338264 C81.3927869,41.0338264 82.3131754,41.5620579 82.5589697,42.2075884 C82.804764,42.853119 82.6960326,49.0336977 82.3173869,55.9416077 C81.9387411,62.8495177 81.8495354,68.501865 82.118684,68.501865 C82.3882154,68.501865 85.2634726,66.8195498 88.5085697,64.7641158 C91.753284,62.7082958 98.715924,58.5908682 103.981358,55.6136334 C111.599067,51.3059807 113.360975,49.9663023 112.608278,49.0518328 C111.968907,48.2758842 111.85137,45.3989711 112.246861,40.176463 C112.893124,31.6290675 112.204747,30.5799357 108.534678,34.5171704 C106.97109,36.1948553 106.51817,37.9026367 106.132633,43.5742765 C105.787678,48.6381994 105.20497,51.1427653 104.016198,52.6657235 C102.311718,54.8496463 99.6068326,55.4423151 98.6282497,53.846045 C98.3173697,53.3394212 98.340724,48.6401286 98.6799354,43.4033441 C99.2228269,35.032283 99.5371526,33.6405145 101.285661,31.8787138 C102.566318,30.5872669 104.27501,29.8745981 106.088604,29.8745981 C107.920575,29.8745981 109.252153,29.3116399 109.902627,28.2621222 C110.45241,27.3750482 112.092187,26.2313826 113.547427,25.7201286 C115.798244,24.9291318 116.44221,25.0418006 117.862993,26.4744695 C119.298707,27.9210289 119.533781,29.358328 119.533781,36.6910611 C119.533781,41.3841801 119.902855,45.4541479 120.353478,45.7346624 C120.804484,46.0155627 123.00821,45.3179421 125.250604,44.1843087 C127.493764,43.0506752 130.05661,42.2384566 130.94637,42.3796785 C132.527187,42.6304823 133.974004,44.167717 134.000038,45.6250804 C134.030667,47.3398071 128.72733,51.0258521 124.10701,52.5013505 C121.35733,53.379164 115.467073,56.0523473 111.016741,58.4411576 C106.56641,60.8303537 101.967147,63.2917042 100.795987,63.9106109 C99.6252097,64.5302894 94.8341354,67.4619936 90.1498783,70.4264952 L81.6328383,75.816463 L81.513004,91.2578778 C81.4471526,99.7508682 81.8032097,109.087331 82.3043697,112.005916 C83.0203126,116.176592 82.9778154,117.6 82.1068154,118.658006 C80.4991983,120.610418 76.3555354,120.379293 75.2379754,118.275627" id="Fill-1" fill="#FFFFFF" mask="url(#mask-2)"></path>
            </g>
        </g>
    </g>
</svg>